<?xml version="1.0" encoding="UTF-8"?>
<svg id="OBJECT" xmlns="http://www.w3.org/2000/svg" xmlns:xlink="http://www.w3.org/1999/xlink" viewBox="0 0 750 500">
  <defs>
    <style>
      .cls-1, .cls-2 {
        fill: #fff;
      }

      .cls-3 {
        fill: #ffa1b1;
      }

      .cls-4 {
        stroke-dasharray: 0 0 3.19 3.19;
      }

      .cls-4, .cls-5, .cls-6, .cls-7, .cls-8, .cls-9, .cls-10, .cls-11, .cls-12, .cls-13 {
        stroke-linecap: round;
        stroke-linejoin: round;
      }

      .cls-4, .cls-5, .cls-6, .cls-7, .cls-8, .cls-10, .cls-11, .cls-14, .cls-12, .cls-13 {
        fill: none;
      }

      .cls-4, .cls-5, .cls-8, .cls-11 {
        stroke: #fff;
      }

      .cls-15 {
        fill: #888c31;
      }

      .cls-16 {
        fill: #592e4c;
      }

      .cls-17 {
        fill: #dacac2;
      }

      .cls-18 {
        fill: #b6c172;
      }

      .cls-19 {
        fill: #ef685e;
      }

      .cls-6 {
        stroke: #592e4c;
      }

      .cls-7 {
        stroke: #ffd599;
      }

      .cls-20 {
        fill: #6986d1;
      }

      .cls-8 {
        stroke-dasharray: 0 0 3.19 3.19;
      }

      .cls-21, .cls-9 {
        fill: #49263e;
      }

      .cls-9, .cls-13 {
        stroke: #49263e;
      }

      .cls-22 {
        clip-path: url(#clippath);
      }

      .cls-10 {
        stroke: #b6c172;
      }

      .cls-11 {
        stroke-dasharray: 0 0 3.19 3.19;
      }

      .cls-23 {
        fill: #de6847;
      }

      .cls-24 {
        fill: #c2deff;
      }

      .cls-2 {
        font-family: BradleyHandITC, 'Bradley Hand ITC';
        font-size: 20.08px;
      }

      .cls-25 {
        fill: #cecece;
      }

      .cls-12 {
        stroke: #ff9d76;
      }

      .cls-26 {
        fill: #f4f0ed;
      }

      .cls-27 {
        fill: #ff9d76;
      }

      .cls-28 {
        fill: #ffd599;
      }
    </style>
    <clipPath id="clippath">
      <path class="cls-14" d="M653.06,413.46l45.91,20.14c1.43,.63,3.01-.47,2.94-2.02-.59-12.08-1.55-52.6-1.88-67-.04-1.88-2.34-2.76-3.63-1.39l-44.03,46.91c-.99,1.06-.64,2.77,.69,3.36Zm37.49-26.32l.82,30.27c.02,.89-.89,1.5-1.7,1.15l-20.71-9.08c-.77-.34-.97-1.33-.4-1.94l19.88-21.18c.74-.79,2.07-.29,2.1,.8Z"/>
    </clipPath>
  </defs>
  <g>
    <path class="cls-17" d="M599.85,336.75c9.54-.01,20.65-19.28,23.75-24.59,7.71-13.2,13.63-26.99,17.72-41.07,8.18-28.17,9.01-57.56,2.06-85.92-6.9-28.14-22.56-56.84-42.8-81.04-18.22-21.79-43.1-40.98-74.04-52.03-36.19-12.93-77.62-13.91-117.68-14.86-91.21-2.15-199-3.17-260.61,56.79-25.66,24.97-36.44,56.89-40.35,88.29-4.25,34.14-11.22,77.46,.45,110.8,6.75,19.28,30.39,43.63,59.85,43.63h431.65Z"/>
    <path class="cls-26" d="M102.23,236.37H647.62c.32-4.23,.46-8.46,.45-12.7H103.09c-.36,4.22-.66,8.46-.86,12.7Z"/>
  </g>
  <g>
    <g>
      <g>
        <path class="cls-19" d="M433.41,286.26h33.13c2.02,0,3.66,1.64,3.66,3.66v15.2h-40.45v-15.2c0-2.02,1.64-3.66,3.66-3.66Z" transform="translate(656.67 -201.48) rotate(79.26)"/>
        <g>
          <path class="cls-1" d="M450.66,285.92c.05-.19,.13-.35,.25-.48,.12-.13,.26-.21,.43-.25l.11,.6c-.12,.03-.21,.11-.27,.23-.06,.12-.07,.26-.05,.41,.03,.16,.09,.28,.17,.36,.08,.08,.17,.11,.27,.09,.1-.02,.17-.09,.21-.2,.03-.11,.06-.28,.08-.51,.02-.22,.04-.4,.07-.55,.03-.14,.09-.27,.19-.39,.09-.12,.23-.2,.42-.23,.15-.03,.29,0,.44,.06,.14,.06,.26,.17,.37,.32,.1,.15,.17,.34,.22,.55,.06,.32,.03,.59-.1,.82-.12,.23-.33,.37-.6,.44l-.11-.58c.12-.03,.21-.1,.27-.21,.06-.11,.07-.24,.04-.39-.03-.15-.08-.27-.15-.34-.07-.07-.16-.1-.25-.08-.08,.01-.13,.05-.17,.12-.04,.06-.07,.14-.08,.22-.01,.08-.03,.21-.04,.37-.02,.21-.04,.39-.07,.53-.03,.14-.09,.27-.18,.39-.09,.12-.23,.19-.41,.23-.16,.03-.31,.01-.45-.05-.14-.07-.26-.17-.37-.32s-.17-.33-.22-.55c-.04-.22-.04-.43,0-.62Z"/>
          <path class="cls-1" d="M453.2,287.8c.24,.08,.44,.21,.6,.39,.16,.18,.26,.41,.31,.68,.06,.34,.04,.64-.08,.89-.12,.25-.32,.45-.61,.59l-.12-.63c.13-.08,.22-.18,.28-.31,.06-.13,.07-.28,.04-.45-.05-.24-.17-.41-.36-.52-.19-.11-.44-.14-.75-.08-.3,.06-.53,.17-.67,.35-.14,.17-.19,.38-.15,.62,.06,.34,.25,.53,.57,.59l.12,.63c-.3-.03-.56-.14-.77-.33-.21-.19-.35-.46-.41-.79-.05-.27-.04-.52,.05-.75,.08-.23,.22-.42,.42-.58,.2-.16,.44-.27,.73-.32,.29-.05,.55-.05,.8,.03Z"/>
          <path class="cls-1" d="M454.53,291.35l-2.82,.53-.11-.58,2.82-.53,.11,.58Zm.38-.64c.06-.09,.14-.14,.24-.16,.11-.02,.2,0,.29,.06,.08,.06,.14,.14,.16,.25,.02,.1,0,.2-.06,.28-.06,.08-.14,.14-.25,.16-.11,.02-.2,0-.29-.06-.09-.06-.14-.14-.16-.24-.02-.1,0-.2,.06-.29Z"/>
          <path class="cls-1" d="M453.54,294.98l-.41-2.15c-.22,.06-.39,.18-.49,.35-.11,.18-.14,.37-.1,.59,.06,.31,.23,.51,.52,.59l.12,.63c-.28-.04-.52-.15-.72-.34-.21-.19-.34-.45-.4-.78-.05-.27-.04-.52,.04-.76,.08-.24,.22-.44,.41-.6,.2-.16,.44-.27,.73-.33,.29-.06,.56-.04,.8,.03,.24,.08,.44,.21,.6,.4,.16,.19,.27,.42,.32,.7,.05,.27,.04,.51-.04,.74-.08,.23-.21,.42-.4,.58-.19,.16-.42,.26-.69,.31-.11,.02-.2,.03-.29,.03Zm.36-.68c.21-.04,.37-.15,.47-.33,.1-.17,.13-.37,.09-.59-.04-.2-.13-.36-.29-.48-.15-.12-.34-.17-.57-.16l.29,1.56Z"/>
          <path class="cls-1" d="M455.57,297.3c-.06,.19-.17,.36-.33,.49-.16,.13-.37,.22-.63,.27l-1.66,.31-.11-.58,1.57-.3c.25-.05,.43-.15,.54-.3s.15-.34,.1-.56-.14-.38-.3-.48c-.16-.1-.36-.13-.62-.08l-1.57,.3-.11-.58,2.82-.53,.11,.58-.32,.06c.13,.07,.25,.18,.34,.31,.09,.14,.16,.29,.19,.45,.04,.22,.03,.43-.02,.62Z"/>
          <path class="cls-1" d="M455.26,298.69c.24,.08,.44,.21,.6,.39,.16,.18,.26,.41,.31,.68,.06,.34,.04,.64-.08,.89-.12,.25-.32,.45-.61,.58l-.12-.63c.13-.08,.22-.18,.28-.31,.06-.13,.07-.28,.04-.45-.05-.24-.17-.41-.36-.52-.19-.11-.44-.14-.75-.08-.3,.06-.53,.17-.67,.35-.14,.17-.19,.38-.15,.62,.06,.34,.25,.53,.57,.59l.12,.63c-.3-.03-.56-.14-.77-.33-.21-.19-.35-.46-.41-.79-.05-.27-.04-.52,.05-.75,.08-.23,.22-.42,.42-.58,.2-.16,.44-.27,.73-.32,.29-.05,.55-.05,.8,.03Z"/>
          <path class="cls-1" d="M455.35,304.52l-.41-2.15c-.22,.06-.39,.18-.49,.35-.11,.18-.14,.37-.1,.59,.06,.31,.23,.51,.52,.59l.12,.63c-.28-.04-.52-.15-.72-.34-.21-.19-.34-.45-.4-.78-.05-.27-.04-.52,.04-.76,.08-.24,.22-.44,.42-.6,.2-.16,.44-.27,.73-.33,.29-.05,.56-.04,.8,.03,.24,.08,.44,.21,.6,.4,.16,.19,.27,.42,.32,.7,.05,.27,.04,.52-.04,.74-.08,.23-.21,.42-.4,.58-.19,.16-.42,.26-.69,.31-.11,.02-.2,.03-.29,.03Zm.36-.68c.21-.04,.37-.15,.47-.33,.1-.17,.13-.37,.09-.59-.04-.2-.14-.36-.29-.48-.15-.12-.34-.17-.57-.16l.3,1.56Z"/>
        </g>
        <path class="cls-13" d="M433.41,286.26h33.13c2.02,0,3.66,1.64,3.66,3.66v15.2h-40.45v-15.2c0-2.02,1.64-3.66,3.66-3.66Z" transform="translate(656.67 -201.48) rotate(79.26)"/>
      </g>
      <g>
        <path class="cls-20" d="M443.71,271.67l7.31-1.39c1.99-.38,3.29-2.29,2.92-4.28l-6.17-32.55c-.38-1.99-2.29-3.29-4.28-2.92l-7.31,1.39-2.67-14.08c-.38-1.99-2.29-3.29-4.28-2.92l-132.84,25.19,35.21,185.7,136.44-25.87-24.32-128.28Z"/>
        <g>
          <path class="cls-16" d="M444.26,238.05c-.06,.19-.17,.36-.33,.49-.16,.13-.37,.23-.63,.28l-1.66,.31-.11-.58,1.57-.3c.25-.05,.43-.15,.54-.3,.11-.15,.14-.34,.1-.55-.04-.22-.14-.38-.3-.48-.16-.1-.36-.13-.62-.08l-1.57,.3-.11-.58,1.57-.3c.25-.05,.43-.15,.54-.3,.11-.15,.15-.34,.1-.55s-.14-.38-.3-.48c-.16-.1-.36-.13-.62-.08l-1.57,.3-.11-.58,2.82-.53,.11,.58-.32,.06c.13,.07,.25,.18,.34,.31s.15,.28,.19,.45c.04,.23,.03,.44-.03,.63-.06,.2-.17,.36-.34,.49,.19,.05,.35,.16,.48,.32,.13,.16,.22,.35,.26,.55,.04,.22,.03,.43-.03,.62Z"/>
          <path class="cls-16" d="M443.95,239.45c.24,.08,.44,.2,.6,.38,.16,.18,.26,.39,.31,.64,.04,.22,.04,.42-.02,.6-.05,.18-.14,.33-.25,.46l.41-.08,.11,.59-2.82,.53-.11-.59,.42-.08c-.15-.07-.29-.19-.41-.34-.12-.15-.2-.34-.24-.56-.05-.24-.03-.47,.06-.7,.09-.23,.23-.42,.43-.58,.2-.16,.44-.27,.73-.32s.54-.04,.79,.03Zm.12,2.06c.13-.11,.22-.23,.27-.38,.05-.14,.06-.29,.03-.44-.03-.15-.09-.28-.19-.4-.1-.12-.23-.2-.38-.25-.16-.05-.33-.06-.53-.03-.19,.04-.36,.11-.49,.22-.13,.11-.22,.23-.27,.38-.05,.15-.06,.29-.04,.44,.03,.15,.09,.28,.19,.4,.1,.11,.23,.2,.39,.25,.16,.05,.34,.06,.53,.02,.19-.04,.36-.11,.48-.22Z"/>
          <path class="cls-16" d="M444.91,243.58l-1.56,.29c-.11,.02-.18,.06-.21,.12-.04,.06-.04,.15-.02,.27l.07,.36-.48,.09-.09-.46c-.05-.26-.03-.48,.07-.64,.1-.16,.28-.27,.56-.32l1.56-.3-.06-.33,.48-.09,.06,.33,.7-.13,.11,.59-.7,.13,.13,.68-.48,.09-.13-.68Z"/>
          <path class="cls-16" d="M445.91,246.76c-.06,.19-.17,.34-.33,.48-.16,.13-.37,.22-.63,.27l-1.66,.31-.11-.58,1.57-.3c.25-.05,.43-.15,.54-.3,.11-.15,.14-.34,.1-.55-.04-.22-.14-.38-.3-.48-.16-.1-.36-.13-.62-.08l-1.57,.3-.11-.58,3.78-.72,.11,.58-1.29,.25c.14,.08,.25,.18,.35,.32,.09,.14,.16,.3,.19,.48,.04,.22,.03,.42-.03,.6Z"/>
          <path class="cls-16" d="M445.1,250.89l-.41-2.15c-.22,.06-.39,.18-.49,.35-.11,.18-.14,.37-.1,.59,.06,.31,.23,.51,.52,.59l.12,.63c-.27-.04-.52-.15-.72-.34s-.34-.45-.41-.78c-.05-.27-.04-.52,.05-.76,.08-.24,.22-.44,.41-.6,.2-.16,.44-.27,.73-.33,.29-.06,.56-.04,.8,.03,.24,.08,.44,.21,.6,.4,.16,.19,.26,.42,.32,.7,.05,.27,.04,.51-.04,.74-.08,.23-.21,.42-.4,.58-.19,.15-.42,.26-.69,.31-.11,.02-.2,.03-.29,.03Zm.36-.68c.21-.04,.37-.15,.47-.33,.1-.17,.13-.37,.09-.59-.04-.2-.14-.36-.29-.48-.15-.12-.34-.17-.57-.16l.29,1.56Z"/>
          <path class="cls-16" d="M447.51,255.2c-.06,.19-.17,.36-.33,.49-.16,.13-.37,.23-.63,.27l-1.66,.31-.11-.58,1.57-.3c.25-.05,.43-.15,.54-.3,.11-.15,.15-.34,.1-.56-.04-.22-.14-.38-.3-.48-.16-.1-.36-.13-.62-.08l-1.57,.3-.11-.58,1.57-.3c.25-.05,.43-.15,.54-.3,.11-.15,.15-.34,.1-.55-.04-.22-.14-.38-.3-.48-.16-.1-.37-.13-.62-.08l-1.57,.3-.11-.58,2.82-.53,.11,.58-.32,.06c.13,.07,.25,.18,.34,.31,.09,.14,.15,.29,.19,.45,.04,.23,.03,.44-.03,.63-.06,.2-.17,.36-.34,.49,.19,.05,.35,.16,.48,.32,.14,.16,.22,.34,.26,.55,.04,.22,.03,.43-.03,.62Z"/>
          <path class="cls-16" d="M447.2,256.59c.24,.08,.44,.2,.6,.38,.16,.18,.26,.39,.31,.64,.04,.22,.03,.42-.02,.61-.06,.18-.14,.33-.25,.46l.41-.08,.11,.59-2.82,.53-.11-.59,.42-.08c-.15-.07-.29-.19-.41-.34-.12-.15-.2-.34-.24-.56-.05-.24-.03-.48,.06-.7,.09-.22,.23-.42,.43-.58,.2-.16,.44-.27,.73-.32,.28-.05,.54-.04,.78,.03Zm.12,2.06c.13-.11,.22-.23,.27-.38,.05-.14,.06-.29,.03-.44-.03-.15-.09-.28-.19-.4-.1-.12-.23-.2-.38-.25-.16-.05-.33-.06-.53-.02-.19,.04-.36,.11-.49,.22-.13,.11-.22,.24-.27,.38-.05,.15-.06,.29-.04,.44,.03,.15,.09,.28,.19,.4,.1,.12,.23,.2,.39,.25,.16,.05,.34,.06,.53,.02,.19-.04,.36-.11,.48-.22Z"/>
          <path class="cls-16" d="M448.16,260.72l-1.56,.3c-.11,.02-.18,.06-.21,.12-.04,.06-.04,.15-.02,.27l.07,.36-.49,.09-.09-.46c-.05-.26-.03-.47,.07-.64,.1-.16,.28-.27,.56-.32l1.56-.3-.06-.33,.48-.09,.06,.33,.7-.13,.11,.59-.7,.13,.13,.69-.48,.09-.13-.69Z"/>
          <path class="cls-16" d="M448.97,262.44l-2.82,.53-.11-.58,2.82-.53,.11,.58Zm.38-.64c.06-.09,.14-.14,.24-.16,.11-.02,.2,0,.29,.06,.08,.06,.14,.14,.16,.24,.02,.1,0,.2-.06,.28-.06,.09-.14,.14-.25,.16-.11,.02-.2,0-.29-.06-.09-.06-.14-.14-.16-.24-.02-.1,0-.2,.06-.29Z"/>
          <path class="cls-16" d="M448.48,263.31c.24,.08,.44,.21,.6,.39,.16,.19,.26,.41,.31,.68,.06,.34,.04,.64-.08,.89-.12,.25-.32,.45-.61,.58l-.12-.63c.13-.08,.22-.18,.28-.31,.06-.13,.07-.28,.04-.45-.04-.24-.17-.41-.36-.52-.2-.11-.45-.14-.75-.08-.3,.06-.53,.17-.67,.35-.14,.17-.19,.38-.15,.62,.06,.34,.25,.53,.57,.59l.12,.63c-.3-.03-.56-.14-.77-.33-.21-.19-.35-.46-.41-.79-.05-.27-.04-.52,.05-.75,.08-.23,.22-.43,.42-.59,.2-.16,.44-.27,.73-.32,.29-.06,.56-.05,.8,.03Z"/>
          <path class="cls-16" d="M447.04,267.22c.05-.19,.13-.35,.25-.48,.12-.13,.26-.21,.43-.25l.11,.6c-.12,.03-.21,.11-.27,.23-.06,.12-.07,.26-.05,.41,.03,.16,.09,.28,.17,.36,.08,.08,.17,.11,.27,.09,.1-.02,.17-.09,.21-.2,.03-.11,.06-.28,.08-.51,.02-.22,.04-.4,.07-.55,.03-.14,.09-.27,.19-.39,.09-.12,.23-.2,.42-.23,.15-.03,.3-.01,.44,.06,.14,.06,.26,.17,.37,.32,.1,.15,.17,.33,.22,.55,.06,.32,.03,.59-.1,.82-.12,.23-.33,.37-.6,.44l-.11-.58c.12-.03,.21-.1,.27-.21,.06-.11,.07-.24,.04-.39-.03-.15-.08-.27-.15-.34-.07-.07-.16-.1-.25-.08-.08,.01-.13,.05-.17,.12-.04,.06-.07,.14-.08,.22-.01,.08-.03,.21-.04,.37-.02,.21-.04,.39-.07,.53-.03,.14-.09,.27-.18,.39-.09,.12-.23,.19-.41,.23-.16,.03-.31,.01-.45-.05-.14-.07-.27-.17-.37-.32-.1-.15-.17-.33-.22-.55-.04-.22-.04-.43,0-.62Z"/>
        </g>
        <line class="cls-5" x1="436.18" y1="231.93" x2="443.71" y2="271.67"/>
        <path class="cls-13" d="M443.71,271.67l7.31-1.39c1.99-.38,3.29-2.29,2.92-4.28l-6.17-32.55c-.38-1.99-2.29-3.29-4.28-2.92l-7.31,1.39-2.67-14.08c-.38-1.99-2.29-3.29-4.28-2.92l-132.84,25.19,35.21,185.7,136.44-25.87-24.32-128.28Z"/>
      </g>
      <path class="cls-18" d="M283.38,244.63h180.12c2.45,0,4.44,1.99,4.44,4.44v134.43h-189.01V249.07c0-2.45,1.99-4.44,4.44-4.44Z" transform="translate(612.45 -111.35) rotate(79.26)"/>
      <path class="cls-13" d="M283.38,244.63h180.12c2.45,0,4.44,1.99,4.44,4.44v134.43h-189.01V249.07c0-2.45,1.99-4.44,4.44-4.44Z" transform="translate(612.45 -111.35) rotate(79.26)"/>
      <g>
        <path class="cls-13" d="M403.28,217.93s1.36-8.78,2.05-16.68c0,0-2.37-.03-1.64-2.99,.96-3.87,8.07-4.47,8.86-2.09,.79,2.38-2.52,3.39-2.52,3.39l1.15,16.56"/>
        <polygon class="cls-27" points="392.74 211.08 394.83 220.4 414.17 215.58 412.6 205.68 392.74 211.08"/>
        <polygon class="cls-13" points="392.74 211.08 394.83 220.4 414.17 215.58 412.6 205.68 392.74 211.08"/>
        <path class="cls-5" d="M399.58,219.21s.23-8.29-.18-15.7c0,0-2.73,.12-2.34-2.68,.51-3.67,8.59-4.7,9.86-2.52s-2.38,3.33-2.38,3.33l3.84,15.39"/>
      </g>
      <polygon class="cls-5" points="310.41 255.37 410.66 236.37 436.52 372.78 336.27 391.77 310.41 255.37"/>
      <line class="cls-5" x1="310.41" y1="255.37" x2="436.52" y2="372.78"/>
      <line class="cls-5" x1="410.66" y1="236.37" x2="336.27" y2="391.77"/>
    </g>
    <g>
      <g>
        <path class="cls-9" d="M442.63,366.88s.57-36.07-2.31-61.81c-.42-3.76,2.31-6.8,6.07-6.8h99.87c3.79,0,7.19,3.08,7.61,6.87,2.45,21.87,2.4,51.16,2.33,59.46-.01,1.26-1.04,2.28-2.3,2.28h-111.27Z"/>
        <g>
          <path class="cls-27" d="M429.38,364.65c1-8.25,4.36-37.66,4.36-59.58,0-3.76,3.07-6.8,6.84-6.8h99.87c3.79,0,6.84,3.08,6.84,6.87-.01,22.36-3.51,52.47-4.42,59.99-.12,1-.97,1.75-1.99,1.75h-109.51c-1.2,0-2.13-1.04-1.99-2.23Z"/>
          <path class="cls-13" d="M429.38,364.65c1-8.25,4.36-37.66,4.36-59.58,0-3.76,3.07-6.8,6.84-6.8h99.87c3.79,0,6.84,3.08,6.84,6.87-.01,22.36-3.51,52.47-4.42,59.99-.12,1-.97,1.75-1.99,1.75h-109.51c-1.2,0-2.13-1.04-1.99-2.23Z"/>
        </g>
        <g>
          <path class="cls-13" d="M532.27,298.28c0-4.26-3.46-7.72-7.72-7.72s-7.72,3.46-7.72,7.72,3.46,7.72,7.72,7.72"/>
          <path class="cls-13" d="M509.44,298.28c0-4.26-3.46-7.72-7.72-7.72s-7.72,3.46-7.72,7.72,3.46,7.72,7.72,7.72"/>
          <path class="cls-13" d="M486.62,298.28c0-4.26-3.46-7.72-7.72-7.72s-7.72,3.46-7.72,7.72,3.46,7.72,7.72,7.72"/>
          <path class="cls-13" d="M463.79,298.28c0-4.26-3.46-7.72-7.72-7.72s-7.72,3.46-7.72,7.72,3.46,7.72,7.72,7.72"/>
        </g>
      </g>
      <g>
        <polygon class="cls-5" points="518.33 337.56 533.43 337.56 534.6 322.46 519.5 322.46 518.33 337.56"/>
        <polygon class="cls-5" points="503.03 337.56 518.13 337.56 519.29 322.46 504.19 322.46 503.03 337.56"/>
        <polygon class="cls-5" points="487.73 337.56 502.83 337.56 503.99 322.46 488.89 322.46 487.73 337.56"/>
        <polygon class="cls-5" points="472.42 337.56 487.52 337.56 488.68 322.46 473.58 322.46 472.42 337.56"/>
        <polygon class="cls-5" points="457.12 337.56 472.22 337.56 473.38 322.46 458.28 322.46 457.12 337.56"/>
        <polygon class="cls-5" points="441.81 337.56 456.91 337.56 458.07 322.46 442.97 322.46 441.81 337.56"/>
        <polygon class="cls-5" points="517.17 352.66 532.27 352.66 533.43 337.56 518.33 337.56 517.17 352.66"/>
        <polygon class="cls-5" points="501.87 352.66 516.97 352.66 518.13 337.56 503.03 337.56 501.87 352.66"/>
        <polygon class="cls-5" points="486.56 352.66 501.66 352.66 502.83 337.56 487.73 337.56 486.56 352.66"/>
        <polygon class="cls-5" points="471.26 352.66 486.36 352.66 487.52 337.56 472.42 337.56 471.26 352.66"/>
        <polygon class="cls-5" points="455.95 352.66 471.05 352.66 472.22 337.56 457.12 337.56 455.95 352.66"/>
        <polygon class="cls-5" points="440.65 352.66 455.75 352.66 456.91 337.56 441.81 337.56 440.65 352.66"/>
      </g>
      <path class="cls-19" d="M481.32,316.67c-.98-.84,.44-2.25,1.41-1.41,4.89,4.2,9.43,8.78,13.62,13.66,3.05-3.02,5.99-6.15,8.8-9.4,.84-.98,2.25,.44,1.41,1.41-2.84,3.29-5.82,6.46-8.91,9.51,3.01,3.62,5.83,7.39,8.43,11.32,.71,1.08-1.02,2.08-1.73,1.01-2.51-3.79-5.23-7.44-8.13-10.93-3.92,3.78-8.02,7.37-12.3,10.75-1,.79-2.42-.62-1.41-1.41,4.32-3.41,8.46-7.04,12.41-10.86-4.18-4.88-8.72-9.45-13.6-13.64Z"/>
      <path class="cls-19" d="M451.2,316.67c-.98-.84,.44-2.25,1.41-1.41,4.89,4.2,9.43,8.78,13.62,13.66,3.05-3.02,5.99-6.15,8.8-9.4,.84-.98,2.25,.44,1.41,1.41-2.84,3.29-5.82,6.46-8.91,9.51,3.01,3.62,5.83,7.39,8.43,11.32,.71,1.08-1.02,2.08-1.73,1.01-2.51-3.79-5.23-7.44-8.13-10.93-3.92,3.78-8.02,7.37-12.3,10.75-1,.79-2.42-.62-1.41-1.41,4.32-3.41,8.46-7.04,12.41-10.86-4.18-4.88-8.72-9.45-13.6-13.64Z"/>
    </g>
    <g>
      <g>
        <polygon class="cls-27" points="99.68 248.7 180.86 223.64 182.92 388.17 101.56 373.76 99.68 248.7"/>
        <polygon class="cls-13" points="99.68 248.7 180.86 223.64 182.92 388.17 101.56 373.76 99.68 248.7"/>
        <g>
          <path class="cls-19" d="M180.86,223.64s14.73-.46,22.75,7.15l3.84,157.11-24.53,.28-2.06-164.54Z"/>
          <path class="cls-28" d="M181.04,246.27s12.38,.29,23.07,2.79l-.2-8.85s-9.93-3.13-22.88-2.63v8.69Z"/>
          <path class="cls-28" d="M182.92,377.9s12.3-3.01,24.41,0l-.24-9.69s-12.09-3.5-24.17-.51v10.2Z"/>
          <path class="cls-13" d="M180.86,223.64s14.73-.46,22.75,7.15l3.84,157.11-24.53,.28-2.06-164.54Z"/>
        </g>
        <g>
          <path class="cls-1" d="M199.14,336.07c0,.29,0,.57,0,.84,0,.27,0,.54,.01,.8,0,.4,.02,.8,.04,1.18,.02,.39,.04,.79,.06,1.21-.63-.03-1.26-.06-1.88-.07-.62-.01-1.24-.02-1.88,0-.6,.01-1.2,.03-1.8,.07-.59,.04-1.19,.09-1.8,.16,0-.05,0-.11,0-.18,0-.06,0-.13,0-.21s0-.18,0-.28c0-.16,0-.34-.02-.53-.01-.19-.02-.39-.03-.58,.49,.06,1,.09,1.54,.11,.54,.02,1.08,.02,1.64,.02,.55,0,1.1,0,1.65-.02,.55,0,1.08,0,1.58,0-.01-.42-.04-.83-.07-1.23-.03-.4-.07-.82-.12-1.27l1.06-.02Z"/>
          <path class="cls-1" d="M195.42,328.84c.68-.01,1.26,.04,1.74,.18,.48,.13,.87,.32,1.17,.55,.3,.23,.52,.51,.66,.84,.14,.33,.21,.68,.22,1.05,0,.38-.05,.73-.17,1.06-.12,.33-.32,.62-.61,.87-.29,.25-.67,.46-1.14,.6-.48,.15-1.06,.24-1.76,.25-.7,.01-1.3-.04-1.79-.18-.49-.13-.89-.31-1.21-.56-.31-.24-.54-.52-.68-.85-.14-.32-.22-.68-.23-1.05,0-.37,.05-.72,.18-1.06,.13-.33,.34-.62,.64-.87,.3-.25,.69-.45,1.18-.6,.49-.15,1.09-.23,1.8-.25Zm.04,1.72c-.53,.01-.98,.05-1.35,.1-.36,.06-.66,.14-.89,.23-.23,.09-.39,.2-.49,.32-.1,.12-.15,.25-.15,.38,0,.14,.06,.27,.16,.39,.11,.12,.27,.22,.51,.31,.23,.09,.53,.15,.9,.19,.37,.04,.82,.06,1.34,.05,.52-.01,.96-.04,1.31-.1,.35-.06,.64-.14,.85-.23,.21-.1,.37-.2,.45-.33,.09-.12,.13-.25,.13-.39,0-.13-.05-.26-.15-.37-.1-.11-.26-.22-.48-.3-.22-.09-.51-.15-.86-.19-.35-.05-.78-.06-1.29-.05Z"/>
          <path class="cls-1" d="M193.71,321.95c.23,0,.46,.02,.69,.08,.23,.06,.45,.16,.67,.3,.22,.14,.42,.32,.61,.54,.19,.22,.36,.5,.51,.82,.48-.3,.94-.62,1.38-.98,.44-.36,.86-.75,1.27-1.19l.11,1.92-2.43,1.36c.41-.03,.82-.06,1.23-.1,.41-.04,.81-.09,1.2-.14l.04,1.88c-.77-.07-1.54-.11-2.31-.14-.77-.02-1.55-.03-2.33-.01-.45,0-.9,.02-1.35,.04-.45,.02-.9,.05-1.36,.09-.06-.27-.1-.55-.12-.83-.02-.28-.04-.51-.04-.71,0-.14,0-.31,.02-.5s.05-.41,.1-.62c.05-.22,.13-.43,.23-.65,.1-.22,.24-.41,.4-.58,.17-.17,.38-.31,.62-.42,.24-.11,.54-.17,.88-.17Zm1.97,2.89c-.04-.18-.09-.33-.16-.47-.07-.13-.15-.25-.23-.35-.09-.1-.18-.18-.28-.25-.1-.07-.19-.12-.29-.17-.22-.1-.46-.15-.73-.16,0,0-.05,0-.12,0-.08,0-.17,.02-.29,.05-.11,.03-.24,.07-.37,.12s-.27,.12-.39,.22c-.13,.1-.24,.22-.33,.36-.09,.15-.16,.32-.2,.53,.53,.05,1.06,.09,1.59,.11,.53,.02,1.06,.03,1.59,.02h.2Z"/>
          <path class="cls-1" d="M196.01,316.37c0,.16,0,.32,0,.49,0,.16,0,.33,0,.49,0,.09,0,.19,.01,.29,0,.1,.01,.2,.01,.3h1.82c-.02-.43-.04-.84-.07-1.23-.03-.4-.07-.82-.12-1.27l1.06-.02c0,.29,0,.57,0,.84,0,.27,0,.54,.01,.8,0,.4,.02,.79,.04,1.18,.02,.39,.03,.79,.06,1.21-.63-.03-1.26-.06-1.88-.07-.62-.02-1.24-.02-1.87,0-.6,.01-1.2,.04-1.8,.07-.6,.03-1.19,.09-1.8,.16,.02-.61,.02-1.18,.01-1.73,0-.35-.02-.7-.04-1.04-.02-.35-.04-.71-.07-1.11l1.17-.02c-.03,.32-.05,.63-.07,.95-.01,.31-.02,.62-.01,.93v.3c.43,.04,.85,.07,1.28,.08,.42,0,.84,.02,1.27,.02,0-.13,0-.27,0-.4,0-.14,0-.28-.01-.42,0-.12,0-.24,0-.36,0-.12,0-.25-.02-.38l1.02-.02Z"/>
          <path class="cls-1" d="M198.57,307.7c-.52,0-1.05-.01-1.58-.02-.23,0-.47,0-.72,0-.25,0-.51,0-.77,0-.26,0-.52,0-.78,0-.26,0-.51,0-.75,.01-.16,0-.31,0-.46,.01-.14,0-.28,.01-.41,.02,.25,.06,.58,.13,.97,.22,.4,.09,.84,.18,1.31,.27,.48,.09,.99,.18,1.52,.27,.53,.09,1.07,.17,1.59,.23v1.46c-.52,.13-1.04,.26-1.55,.39-.51,.13-1,.25-1.45,.36-.46,.12-.88,.22-1.27,.31-.39,.1-.73,.18-1.02,.24l1.77-.04c.37,0,.74-.02,1.11-.03,.37-.01,.72-.03,1.05-.04,.33-.01,.63-.03,.89-.05,.26-.02,.47-.05,.61-.07l.12,2.09c-.29-.07-.61-.13-.97-.17-.36-.04-.74-.07-1.13-.09-.39-.02-.79-.03-1.2-.03-.41,0-.8,0-1.19,0-.39,0-.76,.02-1.1,.03-.34,.01-.64,.03-.9,.04-.3,.02-.58,.04-.83,.05,.01-.16,.02-.34,.03-.51,0-.18,.01-.36,.02-.53,0-.17,0-.34,0-.51s0-.31,0-.45c0-.09,0-.17,0-.24,0-.07,0-.14,0-.2,0-.06,0-.11,0-.16,1.12-.27,2.07-.49,2.84-.68,.77-.18,1.35-.33,1.76-.44-.26-.05-.52-.1-.8-.15-.27-.05-.55-.09-.81-.13-.27-.04-.53-.08-.79-.11-.26-.03-.5-.07-.73-.09-.54-.06-1.06-.12-1.56-.16,0-.11,0-.24,.01-.37,0-.12,0-.26,0-.42,0-.16,0-.34,0-.53,0-.19-.01-.41-.02-.63-.01-.23-.03-.46-.05-.71,1.27,.04,2.37,.04,3.29,.02,.68-.01,1.27-.04,1.76-.07,.49-.03,.9-.07,1.22-.1,.38-.04,.69-.08,.95-.13l.07,1.81Z"/>
          <path class="cls-1" d="M198.25,296.12c0,.21,0,.41,0,.62,0,.21,0,.41,0,.62,0,.34,.02,.68,.03,1.01,.01,.34,.03,.68,.06,1.02h-1.09c0-.11,.01-.23,.02-.35,0-.12,0-.24,.01-.36-.53-.02-1.05-.04-1.57-.06-.52-.02-1.04-.02-1.57-.01-.35,0-.7,.02-1.03,.04-.34,.02-.68,.04-1.03,.07,0,.13,0,.27,.01,.41,0,.14,.01,.28,.02,.42h-1.06c.01-.39,.01-.78,.02-1.18,0-.4,0-.79-.01-1.19,0-.14,0-.29,0-.43,0-.14,0-.29-.02-.44l1.01,.03c0,.12,0,.23,0,.35,0,.12,0,.23,0,.35,.61,.06,1.22,.1,1.82,.12,.6,.02,1.21,.02,1.82,.01,.53-.01,1.06-.04,1.59-.08,0-.16,0-.33-.01-.5,0-.17-.02-.35-.03-.52l1.01,.06Z"/>
          <path class="cls-1" d="M193.13,289.28c.29,0,.58,.05,.86,.16,.28,.11,.55,.28,.79,.51,.24,.23,.46,.53,.65,.89,.19,.36,.34,.79,.44,1.28,.41-.02,.82-.04,1.22-.07,.4-.03,.8-.06,1.2-.09l.04,1.88c-.77-.07-1.54-.11-2.31-.14-.77-.02-1.54-.03-2.33-.01-.45,0-.9,.02-1.35,.04-.45,.02-.9,.05-1.36,.09-.06-.27-.1-.54-.12-.83-.02-.28-.04-.52-.04-.71,0-.14,0-.31,.02-.51,.02-.2,.05-.41,.11-.63,.05-.22,.13-.44,.24-.66,.1-.22,.24-.42,.42-.6,.18-.18,.39-.32,.64-.44,.25-.11,.55-.17,.91-.18Zm1.87,2.87c-.04-.17-.1-.31-.17-.44-.07-.12-.15-.23-.23-.33-.08-.09-.17-.17-.27-.23-.1-.06-.19-.11-.28-.15-.22-.09-.45-.15-.7-.16,0,0-.04,0-.12,0-.07,0-.17,.02-.28,.04-.11,.02-.24,.06-.37,.12-.14,.05-.27,.13-.39,.22-.12,.09-.23,.21-.33,.36-.1,.14-.16,.32-.2,.52,.53,.03,1.05,.05,1.58,.05,.53,0,1.06,0,1.59,0h.18Z"/>
          <path class="cls-1" d="M196.25,283.09c.27,0,.5,.03,.71,.11,.2,.08,.38,.19,.53,.32,.15,.13,.27,.28,.36,.45,.1,.16,.17,.34,.23,.51,.06,.18,.1,.34,.13,.51,.02,.16,.04,.3,.04,.42,0,.06,0,.15,0,.25,0,.11-.01,.23-.03,.37-.02,.14-.04,.29-.06,.46-.03,.17-.07,.34-.12,.53l-1.28-.06c.16-.31,.27-.58,.32-.82,.05-.24,.08-.44,.07-.61,0-.32-.09-.56-.24-.72-.16-.16-.36-.23-.6-.23-.16,0-.34,.07-.54,.19-.2,.12-.41,.34-.64,.66-.16,.21-.32,.44-.5,.66-.17,.23-.36,.44-.55,.63-.19,.19-.41,.34-.64,.47-.23,.12-.47,.19-.74,.19-.34,0-.63-.06-.89-.19-.25-.14-.46-.32-.63-.55-.17-.23-.3-.5-.38-.81-.09-.3-.13-.62-.14-.95,0-.29,.02-.59,.06-.9,.05-.31,.12-.62,.22-.93l1.28,.12c-.11,.14-.2,.28-.26,.43-.06,.15-.11,.29-.14,.43-.03,.14-.05,.26-.06,.38,0,.11-.01,.21,0,.29,0,.15,.03,.28,.08,.41,.05,.13,.12,.23,.21,.32,.08,.09,.18,.16,.3,.21,.12,.05,.23,.07,.36,.07,.19,0,.37-.07,.52-.2,.15-.13,.3-.29,.45-.48,.15-.19,.3-.4,.46-.62,.16-.22,.34-.43,.53-.62,.2-.19,.42-.36,.68-.49s.56-.2,.9-.21Z"/>
          <path class="cls-1" d="M190.55,276.39c.69-.13,1.39-.23,2.09-.29,.71-.06,1.44-.1,2.21-.11,.26,0,.52,0,.78,.03,.26,.03,.5,.08,.74,.16,.23,.08,.45,.18,.65,.3,.2,.13,.38,.29,.52,.48,.15,.19,.27,.42,.35,.68,.09,.27,.14,.57,.14,.91,0,.31-.02,.58-.1,.81-.07,.23-.17,.43-.3,.6-.13,.17-.28,.31-.46,.42-.18,.11-.37,.2-.58,.27-.21,.07-.43,.11-.66,.15-.23,.03-.46,.05-.7,.05-.7,.01-1.42-.01-2.15-.09-.73-.07-1.48-.16-2.26-.26v-1.61c.72,.08,1.46,.15,2.2,.21,.74,.06,1.51,.09,2.3,.07,.23,0,.44-.02,.64-.05,.2-.02,.38-.06,.53-.12,.15-.05,.28-.12,.37-.21,.09-.08,.13-.18,.13-.3,0-.14-.08-.26-.22-.38-.15-.11-.34-.21-.57-.28-.24-.07-.51-.13-.81-.17-.3-.04-.61-.06-.92-.05-.3,0-.6,.01-.9,.03-.3,.01-.61,.03-.92,.05-.31,.02-.63,.05-.95,.08-.32,.03-.66,.07-1.01,.12l-.15-1.53Z"/>
          <path class="cls-1" d="M197.76,267.91c-.52,0-1.05-.01-1.58-.02-.23,0-.47,0-.72,0-.25,0-.51,0-.77,0-.26,0-.52,0-.78,0-.26,0-.51,0-.75,.01-.16,0-.31,0-.46,0s-.28,.01-.41,.02c.25,.06,.58,.13,.97,.22,.4,.09,.83,.18,1.31,.27,.48,.09,.98,.19,1.52,.27,.54,.09,1.06,.17,1.59,.23v1.46c-.52,.13-1.04,.26-1.55,.39-.51,.12-1,.24-1.45,.36-.46,.11-.88,.22-1.28,.32-.39,.1-.73,.17-1.02,.24l1.77-.04c.37,0,.73-.02,1.11-.03,.37-.01,.72-.03,1.05-.04,.33-.01,.62-.03,.89-.05,.26-.02,.47-.04,.61-.07l.12,2.09c-.29-.07-.61-.13-.98-.17-.36-.04-.74-.07-1.13-.09-.39-.02-.79-.03-1.2-.03-.41,0-.8,0-1.19,0-.39,0-.76,.02-1.1,.03-.34,.02-.64,.03-.9,.04-.3,.02-.58,.04-.83,.06,.01-.16,.02-.34,.03-.51,0-.18,.01-.36,.02-.53,0-.17,0-.34,0-.51,0-.17,0-.31,0-.45,0-.09,0-.17,0-.24,0-.07,0-.14,0-.2,0-.06,0-.11,0-.16,1.12-.27,2.07-.49,2.84-.68,.77-.19,1.36-.33,1.76-.44-.26-.05-.52-.1-.8-.15-.28-.05-.55-.09-.81-.13-.27-.04-.53-.08-.79-.11-.26-.03-.5-.06-.73-.09-.54-.06-1.06-.12-1.56-.16,0-.11,0-.24,.01-.37,0-.12,0-.26,0-.42,0-.16,0-.34,0-.54,0-.2-.01-.41-.02-.63-.01-.23-.03-.46-.05-.71,1.27,.03,2.37,.04,3.29,.02,.68-.01,1.27-.04,1.76-.07,.49-.03,.9-.06,1.22-.1,.38-.04,.69-.08,.94-.13l.07,1.81Z"/>
        </g>
      </g>
      <g>
        <path class="cls-28" d="M157.85,224.49c-.16,.04-.3,.07-.46,.1-5.32,1.22-4.73,8.93-3.95,18.27,.37,4.51,.79,9.39,.62,14.11-.23,6.29-1.52,12.29-5.36,16.7,0,0-7.68-2.76-15.23-.22,0,0,4.27-5.4,8.03-15.83,1.65-4.58,3.21-10.13,4.25-16.62,.34-2.16,.64-4.43,.86-6.8,.43-4.71,6.58-10.23,11.24-9.71Z"/>
        <path class="cls-13" d="M157.85,224.49c-.16,.04-.3,.07-.46,.1-5.32,1.22-4.73,8.93-3.95,18.27,.37,4.51,.79,9.39,.62,14.11-.23,6.29-1.52,12.29-5.36,16.7,0,0-7.68-2.76-15.23-.22,0,0,4.27-5.4,8.03-15.83,1.65-4.58,3.21-10.13,4.25-16.62,.34-2.16,.64-4.43,.86-6.8,.43-4.71,6.58-10.23,11.24-9.71Z"/>
        <path class="cls-9" d="M157.85,224.5c2.05,.23,3.82,1.63,4.69,4.8l6.74-2.08s-.58-5.08-11.42-2.72Z"/>
      </g>
    </g>
    <g>
      <g>
        <path class="cls-19" d="M121.47,273.09l-1.7,7.82-7.7-1.67,1.7-7.82s1.37-.91,4.1-.32,3.6,1.99,3.6,1.99Z"/>
        <path class="cls-13" d="M121.47,273.09l-1.7,7.82-7.7-1.67,1.7-7.82s1.37-.91,4.1-.32,3.6,1.99,3.6,1.99Z"/>
        <g>
          <path class="cls-9" d="M94.08,381.16l-2.22-.48s-.92,5.64,1.01,6.06c2.22,.48,3.43-5.1,3.43-5.1l-2.22-.48Z"/>
          <path class="cls-9" d="M88.59,361.17s5.41,8.15,18.77,4.08c0,0-2.57-3.76-8.72-5.1-6.16-1.34-10.05,1.02-10.05,1.02Z"/>
        </g>
        <path class="cls-19" d="M123.25,281.19l-1.07,4.91-14.45-3.14,1.07-4.91s.95-.24,2.58-.28c.91-.02,2.02,.02,3.3,.2,.52,.07,1.06,.17,1.63,.29,.95,.21,1.82,.46,2.58,.72,.66,.23,1.25,.47,1.77,.71,1.7,.78,2.59,1.49,2.59,1.49Z"/>
        <path class="cls-13" d="M123.25,281.19l-1.07,4.91-14.45-3.14,1.07-4.91s.95-.24,2.58-.28c.91-.02,2.02,.02,3.3,.2,.52,.07,1.06,.17,1.63,.29,.95,.21,1.82,.46,2.58,.72,.66,.23,1.25,.47,1.77,.71,1.7,.78,2.59,1.49,2.59,1.49Z"/>
        <g>
          <path class="cls-20" d="M105.22,369.4c-3.13,5.76-8.6,13.64-8.6,13.64-1.21,.61-2.79,.24-3,.2-.21-.05-.85-.12-1.57-.53-.39-.23-.78-.52-1.07-.89,0,0-1.71-9.44-2.17-15.98-.42-6.03,14.97-69.58,17.77-82.17,.24-1.08,.42-1.93,.52-2.5,0,0,3.41-.87,8.54,.24,5.13,1.11,7.87,3.32,7.87,3.32-1.82,7.12-15.16,78.91-18.29,84.68Z"/>
          <path class="cls-13" d="M105.22,369.4c-3.13,5.76-8.6,13.64-8.6,13.64-1.21,.61-2.79,.24-3,.2-.21-.05-.85-.12-1.57-.53-.39-.23-.78-.52-1.07-.89,0,0-1.71-9.44-2.17-15.98-.42-6.03,14.97-69.58,17.77-82.17,.24-1.08,.42-1.93,.52-2.5,0,0,3.41-.87,8.54,.24,5.13,1.11,7.87,3.32,7.87,3.32-1.82,7.12-15.16,78.91-18.29,84.68Z"/>
          <path class="cls-24" d="M111.72,345.15l-4.36,20.1s-3.14-2.53-9-3.8c-5.87-1.27-9.77-.28-9.77-.28l4.36-20.1s1.76-.45,4.7-.36c1.43,.04,3.14,.22,5.07,.64,5.87,1.27,9,3.8,9,3.8Z"/>
          <path class="cls-13" d="M111.72,345.15l-4.36,20.1s-3.14-2.53-9-3.8c-5.87-1.27-9.77-.28-9.77-.28l4.36-20.1s1.76-.45,4.7-.36c1.43,.04,3.14,.22,5.07,.64,5.87,1.27,9,3.8,9,3.8Z"/>
        </g>
      </g>
      <g>
        <path class="cls-9" d="M110.21,290.33l-.83-.82-2.77,.84s-4.97,6.62-6.72,13.85c-1.43,5.93-1.87,13.34-1.97,15.81l-.87,.03,.83,.82,3.2-.11s1.1-23.68,9.13-30.42Z"/>
        <path class="cls-19" d="M100.54,316.14c-.23,2.32-.3,3.8-.3,3.8l-3.2,.11s.04-1.65,.23-4.09c.07-.9,.15-1.92,.26-2.99,.16-1.6,.37-3.35,.65-5.1,.24-1.52,.53-3.04,.87-4.48,.64-2.66,1.72-5.24,2.83-7.43,1.9-3.77,3.89-6.42,3.89-6.42,1.66-.45,3.61-.03,3.61-.03-1.93,1.62-3.47,4.24-4.68,7.26-1.43,3.57-2.42,7.72-3.09,11.52-.3,1.71-.54,3.34-.73,4.82-.14,1.11-.25,2.14-.34,3.03Z"/>
        <path class="cls-13" d="M100.54,316.14c-.23,2.32-.3,3.8-.3,3.8l-3.2,.11s.04-1.65,.23-4.09c.07-.9,.15-1.92,.26-2.99,.16-1.6,.37-3.35,.65-5.1,.24-1.52,.53-3.04,.87-4.48,.64-2.66,1.72-5.24,2.83-7.43,1.9-3.77,3.89-6.42,3.89-6.42,1.66-.45,3.61-.03,3.61-.03-1.93,1.62-3.47,4.24-4.68,7.26-1.43,3.57-2.42,7.72-3.09,11.52-.3,1.71-.54,3.34-.73,4.82-.14,1.11-.25,2.14-.34,3.03Z"/>
      </g>
    </g>
    <g>
      <g>
        <path class="cls-23" d="M141.29,314.59s-5.45,58.63-8.56,66.64c-3.11,8.01-17.75,5.89-15.89-4.97,2.59-15.19,16.04-63.11,16.04-63.11l8.41,1.45Z"/>
        <path class="cls-25" d="M141.29,314.59l-1.72,17.31s-6.5-2.27-11.32-1.94l4.62-16.81,8.41,1.45Z"/>
        <path class="cls-1" d="M140.07,327.15s-5.75-2.14-10.55-1.81l.48-1.73s6.14-.18,10.22,1.76l-.15,1.79Z"/>
        <path class="cls-13" d="M141.29,314.59s-5.45,58.63-8.56,66.64c-3.11,8.01-17.75,5.89-15.89-4.97,2.59-15.19,16.04-63.11,16.04-63.11l8.41,1.45Z"/>
        <path class="cls-9" d="M141.29,314.59s10.06-3.22,6.91-17.92c-2.37-11.03-1.87-14.79-1.87-14.79,0,0-28.1,8.1-13.46,31.26l8.41,1.45Z"/>
      </g>
      <path class="cls-5" d="M135.42,313.58s-7.45-22.24,10.91-31.7c0,0-5.13,5.87-3.89,13.55s1.1,13.57-2.92,18.86"/>
    </g>
  </g>
  <g>
    <polygon class="cls-17" points="732.76 442.18 120.27 442.18 17.24 357.81 629.73 357.81 732.76 442.18"/>
    <ellipse class="cls-17" cx="528.19" cy="458.53" rx="112.06" ry="26.38"/>
    <ellipse class="cls-17" cx="198.13" cy="452.41" rx="48.95" ry="20.81"/>
  </g>
  <g>
    <path class="cls-9" d="M155.77,332.77s3.61,14.77,38.26,29.33l9.96-7.41s-8.95-25.97-48.22-21.92Z"/>
    <g>
      <path class="cls-9" d="M265.6,274.78s6.09-.27,8.27-4.94c0,0,.67,3.02,3.98,2.47,3.31-.55,.6-4.43,9.66-6.6s12.92-9.17,12.92-9.17c0,0,.85,1.51-.07,5.35-.92,3.84,15.04-1.65,12.28-10.97-2.76-9.33-9.67-10.62-11.44-27.91-1.83-17.86-13.28-26.86-26.35-22.57,0,0-4.92-8.5-23.47-5.21-18.56,3.29-35.64,27.49-37.96,48.58-2.32,21.1,8.06,22.64,10.09,21.73,0,0,3.67,5.95,7.72,5.4,0,0,3.71,6.43,14.91,7.68,14.7,1.65,19.48-3.84,19.48-3.84Z"/>
      <path class="cls-6" d="M306.15,261.89s4.1-5.42-2.98-18.74"/>
      <path class="cls-6" d="M265.6,274.78s7.76,1.41,10.11-9.24"/>
      <path class="cls-6" d="M298.85,258.72s4.64-4.65,3.17-11.36"/>
      <path class="cls-6" d="M221.33,255.03s-.92,14.26,9.88,15.91"/>
      <path class="cls-6" d="M213.1,247.37s-1.45,19.09,10.4,18.18"/>
      <path class="cls-6" d="M229.74,263.95s-.78,13.17,16.38,14.68"/>
    </g>
    <g>
      <path class="cls-28" d="M305.14,310.96c-.28,3.17-.82,6.26-1.39,8.92-.97,4.49-2.07,7.81-2.29,8.44-.02,.08-.03,.11-.03,.11l-5.96,7.98-5.86,7.85-6.1,8.16-5.91,7.94-6.15,8.24-.6,.8-7.63-1.87-50.43-12.39-1.8-.44-8.78-2.16c-.74-2.33-3.34-4.59-6.96-6.67-5.71-3.32-13.96-6.23-21.45-8.46-9.66-2.88-18.03-4.63-18.03-4.63,.46-1.04,.92-2.07,1.39-3.08,1.53-3.3,3.14-6.42,4.83-9.39,1.8-3.21,3.67-6.24,5.62-9.1,2.28-3.36,4.63-6.49,7.05-9.4,2.72-3.28,5.51-6.28,8.32-9.03,3.55-3.48,7.14-6.55,10.7-9.25,4.55-3.47,9.05-6.35,13.31-8.73,.39-.22,.79-.44,1.17-.65,3.23-1.76,6.32-3.23,9.17-4.46,11.29-4.85,19.21-5.98,19.21-5.98l30.59,6.36s4.16,2.47,10.08,6.11c2.23,1.37,4.72,2.91,7.32,4.55,4.65,2.92,9.7,6.16,14.39,9.31,.93,.62,1.74,1.36,2.44,2.19,2.18,2.58,3.3,6.05,3.73,9.83,.36,2.88,.31,5.92,.03,8.89Z"/>
      <g>
        <path class="cls-1" d="M271.45,368.6l-.6,.8-7.63-1.87c2.75,.33,5.5,.69,8.23,1.07Z"/>
        <path class="cls-1" d="M283.51,352.42l-5.91,7.94c-22.07-3.28-44.31-5.18-66.61-5.66l-8.78-2.16c-.74-2.33-3.34-4.59-6.96-6.67,29.56-.25,59.05,1.95,88.26,6.55Z"/>
        <path class="cls-1" d="M295.47,336.41l-5.86,7.85c-38.26-6.38-77.04-8.68-115.81-6.85-9.66-2.88-18.03-4.63-18.03-4.63,.46-1.04,.92-2.07,1.39-3.08,46.28-3.56,92.68-1.29,138.31,6.71Z"/>
        <path class="cls-1" d="M303.74,319.88c-.97,4.49-2.07,7.81-2.29,8.44-45.98-8.46-92.76-11.16-139.47-8.01,1.8-3.21,3.67-6.24,5.62-9.1,45.6-2.58,91.24,.33,136.14,8.67Z"/>
        <path class="cls-1" d="M305.14,310.96c-43.04-7.99-86.76-11.06-130.48-9.15,2.72-3.28,5.51-6.28,8.32-9.03,40.94-1.19,81.83,1.92,122.13,9.3,.36,2.88,.31,5.92,.03,8.89Z"/>
        <path class="cls-1" d="M301.37,292.24c-35.58-6.2-71.61-9.11-107.7-8.71,4.55-3.47,9.05-6.35,13.31-8.73,10.89,.12,21.76,.54,32.61,1.27,4.12,2.55,10.08,5.2,16.94,5.09,4.9-.09,8.34-1.23,10.73-2.62,5.77,.65,11.53,1.38,17.28,2.2,4.65,2.92,9.7,6.16,14.39,9.31,.93,.62,1.74,1.36,2.44,2.19Z"/>
      </g>
      <g>
        <path class="cls-13" d="M233.66,271.55s9.8,9.82,22.88,9.61c13.07-.21,15.76-7.98,15.76-7.98"/>
        <line class="cls-13" x1="242.73" y1="268.16" x2="237.67" y2="274.8"/>
        <line class="cls-13" x1="249.63" y1="271.48" x2="245.87" y2="279.19"/>
        <line class="cls-13" x1="256.25" y1="272.81" x2="256.53" y2="281.16"/>
        <line class="cls-13" x1="262.65" y1="272.17" x2="266.08" y2="279.16"/>
      </g>
      <g>
        <path class="cls-20" d="M301.42,328.43l-30.58,40.97-58.06-14.27c28.04-52.57-4.63-80.98-4.63-80.98l9.17-4.46c19.99,9.67,23.17,40.56,23.17,40.56l47.57-3.72c-1.78-15.18-11.05-30.27-11.05-30.27,0,0,.07-.03,.2-.08,6.22,3.82,14.4,8.96,21.71,13.86,12.83,8.62,2.5,38.38,2.5,38.38Z"/>
        <path class="cls-13" d="M236.87,315.34c.18,2.42-1.11,4.49-2.89,4.62s-3.36-1.72-3.54-4.14c-.18-2.42,1.11-4.49,2.89-4.62,1.77-.13,3.36,1.72,3.54,4.14Z"/>
      </g>
      <path class="cls-13" d="M236.55,263.72s-53.92,7.64-80.78,69.05c0,0,43.02,9,46.44,19.77l68.64,16.85,30.57-40.97s10.34-29.76-2.49-38.38c-14.25-9.56-31.79-19.97-31.79-19.97l-30.59-6.36Z"/>
      <path class="cls-13" d="M161.99,320.31s60.18,13.05,44.31,31.8"/>
    </g>
    <g>
      <path class="cls-27" d="M271.72,262s0,7.69,9.36,8.63l5.24,71.15s-14.28,35.27,29.99,32.1c23.7-1.69-12.31-104.79-13.22-108.79-.91-4.01-.18-14.53-.88-19.51-.69-4.98-3.84-7.41-7.36-6.63s-.67,7.12-.29,11.21l-22.85,11.86Z"/>
      <path class="cls-13" d="M271.72,262s0,7.69,9.36,8.63l5.24,71.15s-14.28,35.27,29.99,32.1c23.7-1.69-12.31-104.79-13.22-108.79-.91-4.01-.18-14.53-.88-19.51-.69-4.98-3.84-7.41-7.36-6.63s-.67,7.12-.29,11.21l-22.85,11.86Z"/>
      <path class="cls-13" d="M294.56,250.15s-6.39,10.34-2.75,13.99"/>
      <path class="cls-13" d="M281.08,270.63s4.05,.22,5.92-1.95"/>
    </g>
    <g>
      <polygon class="cls-27" points="177.3 379.9 255.48 425.92 409.04 403.33 325.19 356.68 177.3 379.9"/>
      <polygon class="cls-13" points="177.3 379.9 255.48 425.92 409.04 403.33 325.19 356.68 177.3 379.9"/>
      <polygon class="cls-9" points="329.96 364.75 397.08 401.34 257.65 421.14 190 381.78 329.96 364.75"/>
      <path class="cls-18" d="M333.53,400.7l6.79-2.06s7.76,1.66,6.95,8.4c-.8,6.74,8.44,11.25,12.58,12.5-6.72,1.41-8.41,3.46-8.41,3.46-4.37-.69-12.91-6.75-11.61-13.41,1.31-6.66-6.31-8.89-6.31-8.89Z"/>
      <path class="cls-13" d="M333.53,400.7l6.79-2.06s7.76,1.66,6.95,8.4c-.8,6.74,8.44,11.25,12.58,12.5-6.72,1.41-8.41,3.46-8.41,3.46-4.37-.69-12.91-6.75-11.61-13.41,1.31-6.66-6.31-8.89-6.31-8.89Z"/>
      <path class="cls-1" d="M324.74,358.77s-24.36,2.82-38.44,4.58c-14.07,1.76-18.95,10.48-18.95,10.48,0,0-13.01-9.7-22.92-8.16-9.91,1.53-53.36,14.61-53.36,14.61l67.93,38.08s29.8-14.3,46.31-15.8c13.67-1.25,25.57,6.89,25.57,6.89,0,0-2.68-7.6,11.39-9.36,14.07-1.76,54.86-1.04,54.86-1.04l-72.39-40.28Z"/>
      <path class="cls-1" d="M274.75,359.65c16.72-3.26,56.77-1.25,56.77-1.25l61.27,30.43s-26.24-.6-47.28-1.08c-30.17-.69-14.63,21.69-14.63,21.69l-63.53-35.61c-1.26-5.73-.8-12.57,7.4-14.18Z"/>
      <path class="cls-1" d="M324.74,358.77s-24.36,2.82-38.44,4.58c-14.07,1.76-18.95,10.48-18.95,10.48,0,0-13.01-9.7-22.92-8.16-9.91,1.53-53.36,14.61-53.36,14.61l67.93,38.08s29.8-14.3,46.31-15.8c13.67-1.25,25.57,6.89,25.57,6.89,0,0-2.68-7.6,11.39-9.36,14.07-1.76,54.86-1.04,54.86-1.04l-72.39-40.28Z"/>
      <path class="cls-13" d="M324.74,358.77s-24.36,2.82-38.44,4.58c-14.07,1.76-18.95,10.48-18.95,10.48,0,0-13.01-9.7-22.92-8.16-9.91,1.53-53.36,14.61-53.36,14.61l67.93,38.08s29.8-14.3,46.31-15.8c13.67-1.25,25.57,6.89,25.57,6.89,0,0-2.68-7.6,11.39-9.36,14.07-1.76,54.86-1.04,54.86-1.04l-72.39-40.28Z"/>
      <path class="cls-1" d="M274.75,359.65c16.72-3.26,56.77-1.25,56.77-1.25l61.27,30.43s-26.24-.6-47.28-1.08c-30.17-.69-14.63,21.69-14.63,21.69l-63.53-35.61c-1.26-5.73-.8-12.57,7.4-14.18Z"/>
      <path class="cls-13" d="M274.75,359.65c16.72-3.26,56.77-1.25,56.77-1.25l61.27,30.43s-26.24-.6-47.28-1.08c-30.17-.69-14.63,21.69-14.63,21.69l-63.53-35.61c-1.26-5.73-.8-12.57,7.4-14.18Z"/>
    </g>
    <g>
      <g>
        <path class="cls-27" d="M268.7,258.39l-1.57,11.69s-11.57,9.37-30.59-6.36l3.52-12.58,28.64,7.24Z"/>
        <path class="cls-19" d="M268,263.67s-2,9.18-11.08,7.71c-10.68-1.73-12.43-13.16-12.55-19.15l24.34,6.16-.71,5.28Z"/>
        <path class="cls-13" d="M268.7,258.39l-1.57,11.69s-11.57,9.37-30.59-6.36l3.52-12.58,28.64,7.24Z"/>
      </g>
      <g>
        <path class="cls-27" d="M237.41,246.45h0c4.51,9.86,14.66,17.29,26.92,18.48,17.36,1.67,32.35-9.82,33.48-25.67,1.13-15.84-12.02-30.05-29.37-31.73-8.27-.8-16,1.39-21.95,5.62-6.55,4.64-10.94,11.75-11.53,20.05-.34,4.65,.57,9.16,2.45,13.25Z"/>
        <ellipse class="cls-13" cx="266.39" cy="236.23" rx="28.72" ry="31.62" transform="translate(-20.98 446.42) rotate(-77.75)"/>
        <g>
          <path class="cls-19" d="M276.78,234.16s-3.44,5.72-.96,6.13c0,0,3.89-.63,3.21-3.19-.28-1.07-1.34-1.31-2.25-2.93Z"/>
          <g>
            <path class="cls-13" d="M270,223.9s-4.64-5.77-9.29,0"/>
            <path class="cls-21" d="M264.04,229.45c.07,1.76,.93,3.2,1.92,3.2,.99,0,1.74-1.42,1.67-3.19-.07-1.76-.93-3.2-1.92-3.2s-1.74,1.42-1.67,3.19Z"/>
          </g>
          <g>
            <path class="cls-13" d="M278.94,223.41s3.31-4.72,9.14-1.78"/>
            <path class="cls-21" d="M285.33,229.01c.07,1.76-.68,3.19-1.67,3.19s-1.85-1.44-1.92-3.2c-.07-1.76,.68-3.19,1.67-3.19,.99,0,1.85,1.44,1.92,3.2Z"/>
          </g>
          <path class="cls-13" d="M274.47,226.6s-.08,5.55,3.74,9.3c2.77,2.71-1.29,5.05-3.95,4.25"/>
          <path class="cls-13" d="M272.04,248.59s-6.48-.32-8.12-5.44"/>
          <path class="cls-19" d="M270.01,251.2c-.51-1.28-5.05-2.89-6.19-2.69-1.13,.2-.13,3.72,2.01,4.25,2.14,.53,4.81,0,4.18-1.56Z"/>
          <path class="cls-19" d="M295.2,239.15c1.12-3.12-11.56-6.45-13.39-3.67-1.07,1.63,12.27,6.79,13.39,3.67Z"/>
          <path class="cls-19" d="M252.7,236.39c-.37-4.22,14.92-4.32,16.19-.29,.74,2.36-15.82,4.5-16.19,.29Z"/>
        </g>
      </g>
      <g>
        <path class="cls-9" d="M246.72,236.06s7.48-5.53,5.97-14.02c0,0,12.67,.47,17.31-5.34,0,0,4.27,3.39,13.54-2.67,0,0-1.79,5.56-5.13,9.02-1.49,1.55,8.08,2.22,10.8-.55,0,0,1.53,1.47,3.95-.47,0,0-10.9-16.58-31.25-14.68-20.36,1.91-25.61,18.22-26.62,23.15s-.22,14,3.86,19.2c0,0,1.72,2.25,5.47,1.43,1.38-.3-5.84-8.22,2.1-15.09Z"/>
        <path class="cls-6" d="M252.69,222.04s18.01,1.37,19.35-9.81"/>
        <path class="cls-6" d="M270.16,216.81s5.54,3.46,14.04-3.52"/>
        <path class="cls-6" d="M289.22,222.51s2.16,2.32,6.36-2.83"/>
        <path class="cls-6" d="M283.05,214.35s-.47,4.56-4.64,8.71c-1.7,1.7,11.33,2.83,12.7-3.3"/>
      </g>
      <g>
        <path class="cls-27" d="M233.84,234.88c4.1,5.6,10.66,7.77,14.66,4.84,4-2.93,3.92-9.84-.17-15.44-4.1-5.6-10.66-7.77-14.66-4.84-4,2.93-3.92,9.84,.17,15.44Z"/>
        <path class="cls-19" d="M239.9,225.56c-2.52-1.47-5.27,3.15-2.13,7.4,3.14,4.26,6.45,3.07,6.82,.22,.36-2.85-2.31-6.24-4.69-7.63Z"/>
        <path class="cls-13" d="M251.38,231.77c-.28-2.46-1.29-5.1-3.05-7.5-4.1-5.6-10.66-7.77-14.66-4.84-4,2.93-3.92,9.84,.17,15.44,2.48,3.39,5.86,5.52,9.04,6.03"/>
        <path class="cls-13" d="M238.51,224.75s8.67,4.1,5.32,11.31"/>
      </g>
    </g>
    <g>
      <g>
        <path class="cls-27" d="M275.12,348.24s16.9,4.83,14.28,11.45c-2.04,5.15-16.61,.22-16.61,.22l2.33-11.68Z"/>
        <path class="cls-13" d="M275.12,348.24s16.9,4.83,14.28,11.45c-2.04,5.15-16.61,.22-16.61,.22l2.33-11.68Z"/>
      </g>
      <g>
        <g>
          <polygon class="cls-28" points="256.85 332.9 268.84 326.95 288.07 366 276.07 371.94 256.85 332.9"/>
          <polygon class="cls-27" points="285.07 367.48 279.07 370.46 259.85 331.41 265.84 328.43 285.07 367.48"/>
          <polygon class="cls-19" points="279.07 370.46 276.07 371.94 256.85 332.9 259.85 331.41 279.07 370.46"/>
          <path class="cls-1" d="M276.44,372.6s-.02-.04-.03-.06c-.06-.1-.12-.21-.18-.31-.02-.04-.04-.07-.06-.11-.07-.13-.14-.26-.2-.39,0,0,0,0,0-.01h0s0,0,0,0l-.55-1.11c1.26-.63,2.63-.64,3.66-.16,.24-1.11,1.08-2.19,2.34-2.82,1.26-.63,2.63-.64,3.66-.16,.24-1.11,1.08-2.19,2.34-2.82l.55,1.11s0,0,0,0h0c.04,.08,.08,.16,.11,.24,.02,.05,.05,.1,.07,.15,.03,.07,.06,.14,.09,.21,.03,.07,.07,.15,.1,.22,.02,.04,.04,.09,.05,.13,.28,.69,.49,1.39,.64,2.08,0,0-.02,0-.03,.01,.65,3.44-.66,6.33-3.24,7.61s-5.67,.57-8.02-2.03c0,0-.02,.01-.03,.02-.47-.55-.9-1.15-1.28-1.81Z"/>
          <rect class="cls-27" x="254.77" y="324.02" width="13.39" height="6.23" transform="translate(641.03 504.08) rotate(153.63)"/>
          <path class="cls-9" d="M280.6,376.5c-.12-.24,1.65-1.37,3.96-2.51,2.31-1.14,4.28-1.87,4.4-1.63,.01,.03,0,.06-.02,.1l-1.23,5.47c-.19,.85-1.12,1.31-1.91,.95l-5.1-2.33c-.05,0-.09-.02-.1-.04Z"/>
          <path class="cls-25" d="M266.08,321.37l-1.04-2.09c-1.2-2.42-4.13-3.41-6.55-2.21l-3.24,1.61c-2.42,1.2-3.41,4.13-2.21,6.55l1.04,2.09,12-5.95Z"/>
          <path class="cls-13" d="M285.77,376.42c2.58-1.28,3.88-4.17,3.24-7.61,0,0,.02,0,.03-.01-.15-.69-.37-1.38-.64-2.08-.02-.04-.03-.09-.05-.13-.03-.08-.06-.15-.1-.22-.03-.07-.06-.14-.09-.21-.02-.05-.05-.1-.07-.15,0,0,0-.01,0-.02h0s-19.23-39.05-19.23-39.05l-2.77-5.58-1.04-2.09c-1.2-2.42-4.13-3.41-6.55-2.21l-3.24,1.61c-2.42,1.2-3.41,4.13-2.21,6.55l1.04,2.09h0l2.77,5.58,19.12,38.83h0s0,0,0,0l.11,.22h0c.03,.06,.06,.12,.1,.19,.02,.04,.04,.07,.06,.11,.06,.1,.12,.21,.18,.31,.01,.02,.02,.04,.03,.06,.39,.66,.82,1.26,1.28,1.81,0,0,.02-.01,.03-.02,2.34,2.6,5.44,3.31,8.02,2.03Z"/>
        </g>
        <g>
          <path class="cls-1" d="M255.18,329.32l11.89-5.89c.21-.1,.29-.35,.19-.56h0c-.1-.21-.35-.29-.56-.19l-11.89,5.89c-.21,.1-.29,.35-.19,.56h0c.1,.21,.35,.29,.56,.19Z"/>
          <path class="cls-1" d="M256.28,331.56l11.82-5.86c.21-.1,.29-.35,.19-.56h0c-.1-.21-.35-.29-.56-.19l-11.82,5.86c-.21,.1-.29,.35-.19,.56h0c.1,.21,.35,.29,.56,.19Z"/>
        </g>
      </g>
      <g>
        <path class="cls-27" d="M289.28,353.2c-4.24,4-10.46-4.12-10.84-4.61,.24,.49,3.25,6.98-1.96,8.69,0,0,3.07,5.68-4.19,7.56,0,0,3.94,8.15-4.91,9.25-5.66,.71-4.83-3.22-4.83-3.22,0,0-3.85,6.12-16.72,3.26-6.61,.33-96.04,27.11-97.72,4.74-1.17-15.64,8-30.56,13.62-38.1,2.42-3.25,4.18-5.14,4.18-5.14,15.78,1.77,25.79,7.12,31.21,11.04,3.49,2.52,5.08,4.45,5.08,4.45l43.72-6.25c3.24-1.56,1.54-.78,14.63-7.01,6.04-2.87,16.17-2.84,19.76-1.64,3.58,1.18,12.99,13.2,8.96,16.99Z"/>
        <path class="cls-19" d="M197.13,346.65c-28.29,4.92-35.39-5.9-35.39-5.9,2.42-3.25,4.18-5.14,4.18-5.14,15.78,1.77,25.79,7.12,31.21,11.04Z"/>
        <path class="cls-13" d="M280.32,336.2c-3.58-1.19-13.71-1.23-19.75,1.64-13.09,6.23-11.4,5.46-14.64,7.01l-43.73,6.25s-10.35-12.58-36.28-15.49c0,0-19.48,20.88-17.8,43.25,1.68,22.37,91.11-4.41,97.71-4.74,12.88,2.86,16.72-3.26,16.72-3.26,0,0-.84,3.93,4.83,3.23,8.85-1.1,4.91-9.25,4.91-9.25,7.26-1.88,4.19-7.56,4.19-7.56,5.42-1.78,1.95-8.74,1.95-8.74,0,0,6.48,8.78,10.85,4.65,4.03-3.81-5.38-15.81-8.96-17Z"/>
        <path class="cls-13" d="M268.27,345.29s5.46-.9,7.14-.3c1.68,.6,3.02,3.56,3.02,3.56"/>
        <path class="cls-13" d="M267.56,352.33s4.61-.41,6.07-.12,2.85,5.07,2.85,5.07"/>
        <path class="cls-13" d="M272.3,364.84c-.48-2.59-1.5-5.23-1.5-5.23-.56-.64-4.5,.13-4.5,.13"/>
        <path class="cls-13" d="M262.56,370.86s3.86-.14,5.53-2.91"/>
        <path class="cls-13" d="M202.21,351.1s-17.53-1.04-24.77,7.48"/>
      </g>
    </g>
  </g>
  <g>
    <g>
      <g>
        <path class="cls-9" d="M125.46,192.07s-.85-10.89,2.87-20.75c3.72-9.86,11.55-17.47,11.55-17.47l54.04,8.68-11.08,29.36-11.08,29.36-46.3-29.19Z"/>
        <path class="cls-9" d="M118.12,179.29s-.46-5.9,1.56-11.24c2.02-5.34,6.26-9.46,6.26-9.46l24.31,2.83-6,15.9-6,15.9-20.12-13.94Z"/>
        <path class="cls-1" d="M171.76,221.26s14.05-9.72,20.17-25.93c6.12-16.22,1.99-32.79,1.99-32.79,0,0-14.05,9.72-20.17,25.93-6.12,16.22-1.99,32.79-1.99,32.79Z"/>
        <path class="cls-13" d="M171.76,221.26s14.05-9.72,20.17-25.93c6.12-16.22,1.99-32.79,1.99-32.79,0,0-14.05,9.72-20.17,25.93-6.12,16.22-1.99,32.79-1.99,32.79Z"/>
        <path class="cls-28" d="M181.68,209.62c-8.78-3.32-7.97-11.15-4.66-19.93,3.32-8.78,7.88-15.2,16.66-11.88,8.78,3.32,13.22,13.12,9.9,21.91-3.32,8.78-13.12,13.22-21.91,9.9Z"/>
        <path class="cls-13" d="M181.68,209.62c-8.78-3.32-7.97-11.15-4.66-19.93,3.32-8.78,7.88-15.2,16.66-11.88,8.78,3.32,13.22,13.12,9.9,21.91-3.32,8.78-13.12,13.22-21.91,9.9Z"/>
        <path class="cls-1" d="M194.26,193.16c1.43,3.17,4.35,4.95,6.51,3.97,2.16-.98,2.75-4.34,1.32-7.51-1.43-3.17-4.35-4.95-6.51-3.97-2.16,.98-2.75,4.34-1.32,7.51Z"/>
      </g>
      <polygon class="cls-9" points="57.76 284.85 55.38 281.51 98.34 209.57 100.72 212.91 57.76 284.85"/>
      <rect class="cls-9" x="118.05" y="186.64" width="4.1" height="39.35" transform="translate(218.5 -11.19) rotate(54.55)"/>
      <polygon class="cls-9" points="48.57 302.8 52.44 301.42 109.69 398.86 105.83 400.24 48.57 302.8"/>
      <polygon class="cls-9" points="74.96 298.33 78.66 296.57 149.18 388.49 145.48 390.26 74.96 298.33"/>
      <polygon class="cls-9" points="73.62 307.12 70.77 304.16 106.36 223.34 109.21 226.3 73.62 307.12"/>
      <circle class="cls-25" cx="104.24" cy="217.63" r="9.98"/>
      <circle class="cls-25" cx="62.76" cy="295.52" r="15.94"/>
      <circle class="cls-13" cx="62.76" cy="295.52" r="15.94"/>
      <circle class="cls-1" cx="62.76" cy="295.52" r="6.2"/>
      <circle class="cls-13" cx="104.24" cy="217.63" r="9.98"/>
      <circle class="cls-1" cx="104.24" cy="217.63" r="4.76"/>
      <g>
        <path class="cls-25" d="M85.75,397.75c7.38-11.12,25.67-18.99,47.08-18.99s39.7,7.87,47.08,18.99H85.75Z"/>
        <path class="cls-5" d="M166.25,397.75s-7.52-11.65-28.88-15.6"/>
        <path class="cls-13" d="M85.75,397.75c7.38-11.12,25.67-18.99,47.08-18.99s39.7,7.87,47.08,18.99H85.75Z"/>
        <path class="cls-9" d="M85.75,397.75h94.16s5.41,1.35,6.62,7.29H79.13c1.21-5.93,6.62-7.29,6.62-7.29Z"/>
      </g>
    </g>
    <g>
      <polygon class="cls-3" points="202.38 218 211.1 225.5 216.33 218.49 207.02 213.16 202.38 218"/>
      <polygon class="cls-3" points="214.71 201.9 235.63 204.33 234.15 190.01 214.46 192.61 213.58 201.79 214.71 201.9"/>
      <polygon class="cls-3" points="209.67 164.53 203.05 174.58 209.06 179.67 217.48 170.09 209.67 164.53"/>
    </g>
  </g>
  <g>
    <g>
      <g>
        <path class="cls-9" d="M651.19,408.2c10.42-17.66,0-40.15,0-40.15h-45.96s10.42,22.48,0,40.15h45.96Z"/>
        <path class="cls-25" d="M645.83,408.2c10.42-17.66,0-40.15,0-40.15h-45.96s10.42,22.48,0,40.15h45.96Z"/>
        <path class="cls-13" d="M645.83,408.2c10.42-17.66,0-40.15,0-40.15h-45.96s10.42,22.48,0,40.15h45.96Z"/>
      </g>
      <g>
        <rect class="cls-9" x="577.39" y="408.2" width="90.73" height="5.53"/>
        <rect class="cls-1" x="569.25" y="408.2" width="90.73" height="5.53"/>
        <rect class="cls-13" x="569.25" y="408.2" width="90.73" height="5.53"/>
      </g>
      <g>
        <polygon class="cls-1" points="514.88 374.47 514.88 180.74 682.63 157.39 682.63 374.47 514.88 374.47"/>
        <polygon class="cls-17" points="523.17 355.41 523.17 189.16 674.34 168.12 674.34 355.41 523.17 355.41"/>
        <g>
          <polygon class="cls-5" points="669.71 201.04 527.82 220.79 527.82 322.49 670.13 322.49 669.71 201.04"/>
          <line class="cls-5" x1="527.82" y1="220.79" x2="670.13" y2="322.49"/>
          <line class="cls-5" x1="669.71" y1="201.04" x2="527.82" y2="322.49"/>
        </g>
        <rect class="cls-19" x="523.17" y="335.02" width="151.16" height="20.39"/>
        <polygon class="cls-13" points="514.88 374.47 514.88 180.74 682.63 157.39 682.63 374.47 514.88 374.47"/>
        <polygon class="cls-9" points="682.63 157.39 694.31 163.46 694.31 374.47 682.63 374.47 682.63 157.39"/>
        <g>
          <polygon class="cls-13" points="648.03 192.15 669.77 189.13 669.77 174.57 648.03 177.6 648.03 192.15"/>
          <line class="cls-13" x1="648.03" y1="177.6" x2="669.77" y2="189.13"/>
          <line class="cls-13" x1="669.77" y1="174.57" x2="648.03" y2="192.15"/>
        </g>
        <path class="cls-25" d="M603.65,365.55c0,2.7-2.19,4.89-4.89,4.89s-4.89-2.19-4.89-4.89,2.19-4.89,4.89-4.89,4.89,2.19,4.89,4.89Z"/>
      </g>
    </g>
    <g>
      <path class="cls-15" d="M517.97,225.31c-1.18,.07-2.67,.13-4.31,.2-6.7,.28-15.85,.52-15.85,.52,0,0,0,0,0-.02l-.72-20.26c1.8-.59,4.48-.83,7.37-.9,4.09-.09,8.58,.2,11.56,.44,2.04,.17,3.37,.32,3.37,.32l-1.41,19.68Z"/>
      <path class="cls-13" d="M517.97,225.31c-1.18,.07-2.67,.13-4.31,.2-6.7,.28-15.85,.52-15.85,.52,0,0,0,0,0-.02l-.72-20.26c1.8-.59,4.48-.83,7.37-.9,4.09-.09,8.58,.2,11.56,.44,2.04,.17,3.37,.32,3.37,.32l-1.41,19.68Z"/>
      <path class="cls-1" d="M507.79,216.95l1.98-7.32s.99,.95,1.87,1.32c0,0-2.33,7.01-2.33,8.34,0,0-1.45,.15-2.56,.44,0,0-1.24-3.84-2.59-5.02,0,0,.71-.96,.85-1.51l2.79,3.76Z"/>
    </g>
  </g>
  <g>
    <path class="cls-28" d="M395.62,343.01s26.05,3.35,46.26-18.89c0,0-1.2,8.55,1.95,18.61,0,0-15.72,21.23-55.43,18.8,0,0,7.03-6.96,7.21-18.52Z"/>
    <path class="cls-13" d="M395.62,343.01s26.05,3.35,46.26-18.89c0,0-1.2,8.55,1.95,18.61,0,0-15.72,21.23-55.43,18.8,0,0,7.03-6.96,7.21-18.52Z"/>
  </g>
  <g>
    <path class="cls-9" d="M655.19,414.44l45.91,20.14c1.43,.63,3.01-.47,2.94-2.02-.59-12.08-1.55-52.6-1.88-67-.04-1.88-2.34-2.76-3.63-1.39l-44.03,46.91c-.99,1.06-.64,2.77,.69,3.36Zm37.49-26.32l.82,30.27c.02,.89-.89,1.5-1.7,1.15l-20.71-9.08c-.77-.34-.97-1.33-.4-1.94l19.88-21.18c.74-.79,2.07-.29,2.1,.8Z"/>
    <g class="cls-22">
      <path class="cls-20" d="M653.06,413.46l45.91,20.14c1.43,.63,3.01-.47,2.94-2.02-.59-12.08-1.55-52.6-1.88-67-.04-1.88-2.34-2.76-3.63-1.39l-44.03,46.91c-.99,1.06-.64,2.77,.69,3.36Zm37.49-26.32l.82,30.27c.02,.89-.89,1.5-1.7,1.15l-20.71-9.08c-.77-.34-.97-1.33-.4-1.94l19.88-21.18c.74-.79,2.07-.29,2.1,.8Z"/>
      <g>
        <path class="cls-1" d="M689.78,376.04c-.11-.05-.22-.13-.31-.22l-2.54-2.62c-.4-.41-.39-1.06,.02-1.46,.41-.4,1.06-.39,1.46,.02l2.54,2.62c.4,.41,.39,1.06-.02,1.46-.31,.3-.77,.37-1.15,.2Z"/>
        <path class="cls-1" d="M695.18,370.3c-.11-.05-.22-.13-.31-.22l-2.54-2.62c-.4-.41-.39-1.06,.02-1.46,.41-.4,1.06-.39,1.46,.02l2.54,2.62c.4,.41,.39,1.06-.02,1.46-.31,.3-.77,.37-1.15,.2Z"/>
        <path class="cls-1" d="M684.41,381.78c-.11-.05-.22-.13-.31-.22l-2.54-2.62c-.4-.41-.39-1.06,.02-1.46,.41-.4,1.06-.39,1.46,.02l2.54,2.62c.4,.41,.39,1.06-.02,1.46-.31,.3-.77,.37-1.15,.2Z"/>
        <path class="cls-1" d="M679,387.51c-.11-.05-.22-.13-.31-.22l-2.54-2.62c-.4-.41-.39-1.06,.02-1.46,.41-.4,1.06-.39,1.46,.02l2.54,2.62c.4,.41,.39,1.06-.02,1.46-.31,.3-.77,.37-1.15,.2Z"/>
        <path class="cls-1" d="M673.6,393.29c-.11-.05-.22-.13-.31-.22l-2.54-2.62c-.4-.41-.39-1.06,.02-1.46,.41-.4,1.06-.39,1.46,.02l2.54,2.62c.4,.41,.39,1.06-.02,1.46-.31,.3-.77,.37-1.15,.2Z"/>
        <path class="cls-1" d="M668.22,399.04c-.11-.05-.22-.13-.31-.22l-2.54-2.62c-.4-.41-.39-1.06,.02-1.46,.41-.4,1.06-.39,1.46,.02l2.54,2.62c.4,.41,.39,1.06-.02,1.46-.31,.3-.77,.37-1.15,.2Z"/>
        <path class="cls-1" d="M662.84,404.79c-.11-.05-.22-.13-.31-.22l-2.54-2.62c-.4-.41-.39-1.06,.02-1.46,.41-.4,1.06-.39,1.46,.02l2.54,2.62c.4,.41,.39,1.06-.02,1.46-.31,.3-.77,.37-1.15,.2Z"/>
        <path class="cls-1" d="M657.44,410.49c-.11-.05-.22-.13-.31-.22l-2.54-2.62c-.4-.41-.39-1.06,.02-1.46,.41-.4,1.06-.39,1.46,.02l2.54,2.62c.4,.41,.39,1.06-.02,1.46-.31,.3-.77,.37-1.15,.2Z"/>
      </g>
    </g>
    <path class="cls-13" d="M653.06,413.46l45.91,20.14c1.43,.63,3.01-.47,2.94-2.02-.59-12.08-1.55-52.6-1.88-67-.04-1.88-2.34-2.76-3.63-1.39l-44.03,46.91c-.99,1.06-.64,2.77,.69,3.36Zm37.49-26.32l.82,30.27c.02,.89-.89,1.5-1.7,1.15l-20.71-9.08c-.77-.34-.97-1.33-.4-1.94l19.88-21.18c.74-.79,2.07-.29,2.1,.8Z"/>
  </g>
  <g>
    <g>
      <polygon class="cls-5" points="230.83 105.14 227.53 86.5 209.75 80.03 195.25 92.2 198.54 110.84 216.33 117.31 230.83 105.14"/>
      <polyline class="cls-5" points="195.25 92.2 213.04 98.67 227.53 86.5"/>
      <g>
        <line class="cls-5" x1="198.54" y1="110.84" x2="199.69" y2="109.88"/>
        <line class="cls-8" x1="202.13" y1="107.83" x2="210.67" y2="100.66"/>
        <polyline class="cls-5" points="211.89 99.64 213.04 98.67 214.45 99.18"/>
        <line class="cls-11" x1="217.44" y1="100.27" x2="227.92" y2="104.08"/>
        <line class="cls-5" x1="229.42" y1="104.63" x2="230.83" y2="105.14"/>
      </g>
      <g>
        <line class="cls-5" x1="209.75" y1="80.03" x2="210.01" y2="81.51"/>
        <line class="cls-4" x1="210.56" y1="84.65" x2="212.5" y2="95.63"/>
        <line class="cls-5" x1="212.78" y1="97.19" x2="213.04" y2="98.67"/>
      </g>
      <line class="cls-5" x1="213.04" y1="98.67" x2="216.33" y2="117.31"/>
    </g>
    <g>
      <g>
        <line class="cls-5" x1="587.15" y1="122.98" x2="594.75" y2="155.5"/>
        <line class="cls-5" x1="574.81" y1="155.41" x2="612.95" y2="146.5"/>
        <polyline class="cls-5" points="585.45 126.34 586.3 124.66 587.15 122.98 588.66 124.11 590.17 125.24"/>
        <polyline class="cls-5" points="609.59 144.8 611.27 145.65 612.95 146.5 611.82 148.01 610.69 149.52"/>
      </g>
      <path class="cls-5" d="M604.25,127.11c2.57,11.02-2.19,21.55-10.64,23.52s-17.39-5.36-19.96-16.38"/>
    </g>
    <g>
      <path class="cls-21" d="M470.61,269.44l4.82-9.8,4.67,1.63-.9,1.48-2.72-.95-1.15,2.34,1.94,.68-.82,1.64-1.92-.67-1.36,2.76,2.97,1.04-.9,1.48-4.62-1.61Z"/>
      <path class="cls-21" d="M479.71,270.46l.75-1.52,3.44,1.2-.75,1.52-3.44-1.2Zm1.2-2.44l.75-1.51,3.44,1.2-.75,1.51-3.44-1.2Z"/>
      <path class="cls-21" d="M489.67,267.67l1.76,.43-.46,.94c.41-.22,.82-.37,1.25-.44,.42-.07,.8-.05,1.12,.06,.51,.18,.66,.68,.45,1.5,.92-.58,1.71-.75,2.38-.52,.44,.15,.66,.45,.67,.89,0,.44-.18,1.03-.54,1.77l-2.53,5.13-1.77-.43,2.56-5.2c.12-.24,.17-.43,.15-.6-.02-.16-.08-.26-.18-.3-.17-.06-.36-.07-.56-.02-.2,.05-.39,.13-.57,.24l-2.6,5.28-1.76-.43,2.57-5.21c.12-.24,.18-.44,.17-.59,0-.15-.06-.24-.15-.27-.16-.06-.36-.06-.58-.02-.22,.05-.43,.12-.61,.22l-2.6,5.28-1.76-.43,3.58-7.28Z"/>
      <path class="cls-21" d="M498.57,278.8c-.2-.48-.25-1.04-.16-1.68,.09-.64,.31-1.3,.64-1.97,.33-.66,.72-1.25,1.19-1.77,.47-.52,.98-.9,1.54-1.13,.56-.23,1.11-.26,1.65-.07,.42,.15,.73,.39,.96,.72,.22,.34,.33,.74,.32,1.21,0,.47-.13,.96-.37,1.48l-1.67-.49s.07-.18,.16-.43c.09-.25,.13-.48,.11-.67-.02-.19-.1-.31-.25-.36-.33-.11-.65,.05-.98,.49-.32,.44-.63,.96-.92,1.55-.29,.58-.5,1.13-.64,1.64-.14,.51-.03,.82,.32,.95,.44,.15,.9-.23,1.37-1.15l1.36,.67c-.55,.87-1.1,1.48-1.65,1.83-.55,.36-1.19,.41-1.91,.15-.52-.18-.88-.51-1.08-.99Z"/>
      <path class="cls-21" d="M507.73,276.34c.21-.13,.54-.32,1-.58,.49-.27,.9-.5,1.22-.7s.62-.42,.89-.67c.27-.25,.48-.51,.62-.79,.08-.16,.1-.32,.08-.49-.03-.17-.13-.28-.31-.35-.18-.06-.39-.03-.61,.11-.23,.14-.43,.33-.59,.57l-.71-.6c.18-.26,.4-.48,.66-.67,.26-.19,.54-.31,.84-.37,.3-.06,.59-.04,.88,.06,.3,.11,.53,.26,.7,.48,.17,.21,.26,.46,.27,.74,.02,.28-.05,.57-.2,.87-.27,.55-.72,1.04-1.34,1.46-.62,.42-1.35,.83-2.19,1.21l1.85,.65-.55,.91-2.92-1.02,.41-.83Z"/>
    </g>
    <g>
      <line class="cls-5" x1="494.38" y1="142.3" x2="490.8" y2="166.62"/>
      <line class="cls-5" x1="488.21" y1="162.8" x2="523.35" y2="167.97"/>
      <path class="cls-5" d="M490.76,151.04c3.93-2.59,7.61-4.48,10.38-4.07,5.05,.74,4.09,7.26,10.73,8.23,6.02,.89,8.13-5.09,9.18-6.96"/>
      <polyline class="cls-5" points="492.31 144.14 493.34 143.22 494.38 142.3 495.11 143.48 495.83 144.66"/>
      <polyline class="cls-5" points="521.51 165.89 522.43 166.93 523.35 167.97 522.17 168.69 520.99 169.42"/>
      <line class="cls-5" x1="497.5" y1="147.46" x2="495.09" y2="163.81"/>
      <line class="cls-5" x1="503.05" y1="147.66" x2="500.56" y2="164.61"/>
      <line class="cls-5" x1="507.8" y1="153.35" x2="506.03" y2="165.42"/>
      <line class="cls-5" x1="513.11" y1="155.29" x2="511.5" y2="166.22"/>
      <line class="cls-5" x1="519.25" y1="151.54" x2="516.97" y2="167.03"/>
    </g>
    <g>
      <path class="cls-5" d="M273.88,36.82c-3.58,1.49-5.73,3.1-5.48,4.39,.45,2.37,8.79,2.78,18.62,.91,9.83-1.86,17.44-5.3,16.99-7.67-.24-1.29-2.83-2-6.71-2.08"/>
      <path class="cls-13" d="M273.88,36.82c-3.58,1.49-5.73,3.1-5.48,4.39,.45,2.37,8.79,2.78,18.62,.91,9.83-1.86,17.44-5.3,16.99-7.67-.24-1.29-2.83-2-6.71-2.08"/>
      <g>
        <path class="cls-16" d="M287.43,44.3c-3.62,.69-7.04,1.06-9.94,1.15,2.46,3.3,6.65,5.11,10.97,4.3,4.32-.82,7.56-4.04,8.63-8.01-2.73,.98-6.04,1.88-9.67,2.57Z"/>
        <path class="cls-16" d="M287.02,42.12c3.98-.76,7.59-1.77,10.46-2.86,.03-.82-.02-1.65-.18-2.48-1.14-6.02-6.95-9.98-12.97-8.83-6.02,1.14-9.98,6.95-8.83,12.97,.16,.84,.41,1.63,.74,2.37,3.07-.03,6.8-.41,10.78-1.16Z"/>
      </g>
    </g>
    <g>
      <path class="cls-5" d="M244.17,151l-8.73,1.54,3.22,18.22,8.73-1.54c.86-.15,1.72-.07,2.5,.21l-2.91-16.45s0,0,0,0c0,0,0,0,0,0-.23-1.32-1.5-2.2-2.82-1.97Zm7.25-1.28c-1.32,.23-2.2,1.5-1.97,2.82,0,0,0,0,0,0,0,0,0,0,0,0l2.91,16.45c.64-.53,1.42-.9,2.28-1.06l8.73-1.54-3.22-18.22-8.73,1.54Z"/>
      <polyline class="cls-5" points="260.63 150.85 265.67 149.96 269.2 169.94 234.4 176.09 230.87 156.11 235.91 155.22"/>
    </g>
    <g>
      <path class="cls-13" d="M656.29,111.94c-1.24,1.73-2.74,2.75-4.35,2.75-4.3,0-7.78-7.2-7.78-16.09s3.48-16.09,7.78-16.09c3.57,0,6.58,4.98,7.49,11.76"/>
      <path class="cls-13" d="M644.45,94.28c-5.42,4.18-8.22,9.28-6.44,12.37,2.15,3.72,10.13,3.13,17.82-1.31,7.69-4.44,12.19-11.06,10.04-14.78-.76-1.31-2.23-2.08-4.16-2.35"/>
      <path class="cls-13" d="M637.78,94.58c-.47-1.51-.42-2.9,.22-4.02,2.15-3.72,10.13-3.13,17.82,1.31,7.69,4.44,12.19,11.06,10.04,14.78-1.79,3.09-7.6,3.21-13.93,.61"/>
      <circle class="cls-21" cx="651.94" cy="98.67" r="4.52"/>
    </g>
    <g>
      <path class="cls-16" d="M564.81,70.52l-7.68,5.02c-.72,.47-.92,1.43-.45,2.15l.12,.19c.47,.72,1.43,.92,2.15,.45l1.27-.83,.21,.31c.86,1.32,2.64,1.69,3.96,.83l.34-.23c1.32-.86,1.69-2.64,.83-3.96l-.21-.31,1.27-.83c.72-.47,.92-1.43,.45-2.15l-.12-.19c-.47-.72-1.43-.92-2.15-.45Z"/>
      <path class="cls-16" d="M543.06,48.23c-4,3.31-5.45,10.16-3.14,14.8,1.74,3.51,4.85,5.75,8.28,6.52,1.99,.45,3.71,1.66,4.83,3.36h0c.57,.87,1.74,1.12,2.61,.55l7.88-5.15c.87-.57,1.12-1.74,.55-2.61-1.1-1.69-1.55-3.74-1.16-5.71,.6-3.03,.07-6.28-1.75-9.07-3.96-6.05-12.36-7.45-18.09-2.7Zm12.94,19.37c.36,.55,.21,1.29-.35,1.65s-1.29,.21-1.65-.35l-2.82-4.32c-.89-1.36-2.71-1.74-4.07-.85-.55,.36-1.29,.21-1.65-.35-.36-.55-.21-1.29,.35-1.65,2.46-1.61,5.77-.91,7.37,1.55l2.82,4.32Zm2.02-11c-1.36,.89-1.74,2.71-.85,4.07l2.82,4.32c.36,.55,.21,1.29-.35,1.65-.55,.36-1.29,.21-1.65-.35l-2.82-4.32c-1.61-2.46-.91-5.77,1.54-7.37,.55-.36,1.29-.21,1.65,.35,.36,.55,.21,1.29-.35,1.65Z"/>
    </g>
    <g>
      <polygon class="cls-13" points="110.46 128.29 137.12 78.11 150.43 113.07 110.46 128.29"/>
      <path class="cls-13" d="M142.48,116.1c-1.67-4.39,.53-9.3,4.92-10.97"/>
      <path class="cls-21" d="M112.18,104.98l1.11-3.77-3.19-1.97,1.31-.5,2.21,1.39,.73-2.51,1.27-.48-1.05,3.57,3.36,2.08-1.31,.5-2.38-1.51-.78,2.71-1.27,.48Z"/>
      <path class="cls-21" d="M153.71,100.97c-.12,.05-.23,.08-.34,.11-.11,.03-.2,.05-.28,.05l-.38-.99c.15-.02,.32-.07,.51-.14,.52-.2,.79-.62,.81-1.27l.04-.64-4.47-4.85,1.24-.47,3.32,3.72,.18-5.05,1.21-.46-.32,7.47c-.03,.47-.09,.87-.2,1.2-.11,.33-.27,.6-.49,.81-.22,.22-.5,.39-.85,.52Z"/>
    </g>
    <g>
      <circle class="cls-13" cx="443.61" cy="103.2" r="18.19" transform="translate(270.69 524.55) rotate(-80.78)"/>
      <polyline class="cls-13" points="450.24 120.1 443.61 103.2 461.16 107.96"/>
      <line class="cls-13" x1="448.04" y1="104.4" x2="445.23" y2="107.34"/>
      <line class="cls-13" x1="453.86" y1="105.98" x2="447.37" y2="112.79"/>
      <line class="cls-13" x1="459.64" y1="107.6" x2="449.69" y2="118.04"/>
      <path class="cls-21" d="M436.27,101.68c-.44,0-.83-.08-1.16-.23-.34-.16-.6-.37-.79-.65-.19-.28-.29-.6-.29-.97,0-.58,.22-1.03,.66-1.36,.44-.33,1.04-.5,1.81-.5,.6,0,1.16,.12,1.67,.35v-.65c0-.44-.13-.77-.38-.98-.25-.22-.62-.32-1.11-.32-.28,0-.57,.04-.88,.13-.3,.08-.64,.21-1.02,.39l-.44-.9c.46-.22,.9-.37,1.3-.47,.4-.1,.8-.15,1.21-.15,.79,0,1.41,.19,1.84,.56,.44,.38,.65,.91,.65,1.61v4.06h-1.18v-.53c-.27,.22-.56,.38-.88,.48-.31,.1-.65,.16-1.02,.16Zm-1.09-1.88c0,.3,.13,.53,.38,.71,.25,.18,.58,.27,.99,.27,.32,0,.61-.05,.88-.14,.27-.09,.51-.24,.74-.44v-1.03c-.23-.14-.47-.23-.73-.29-.25-.06-.53-.09-.85-.09-.44,0-.79,.09-1.04,.27-.25,.18-.38,.43-.38,.74Z"/>
    </g>
  </g>
  <g>
    <g>
      <path class="cls-24" d="M331.91,308.99s36.53-11.49,45.46-43.12c0,0,21.1,14.16,37.32,17.66,0,0-10,33.02-39.04,47.8,0,0-25.12-8.76-43.74-22.35Z"/>
      <path class="cls-13" d="M331.91,308.99s36.53-11.49,45.46-43.12c0,0,21.1,14.16,37.32,17.66,0,0-10,33.02-39.04,47.8,0,0-25.12-8.76-43.74-22.35Z"/>
      <g>
        <path class="cls-1" d="M369.22,303.97c1.13-1.69,2.27-3.35,3.43-5,1.65,.94,3.31,1.85,4.98,2.73-.06,2.52-.13,5.04-.21,7.56-.06,1.93,2.15,2.61,2.21,.65,.22-7.11,.37-14.22,.48-21.34,.02-1.65-1.59-2.38-2.08-1.33-2.08,2.68-4.08,5.39-6.05,8.14-.44-.26-.89-.52-1.33-.78-1.34-.8-2.25,1.89-.9,2.7,.21,.12,.41,.24,.62,.36-.97,1.4-1.94,2.81-2.89,4.23-.94,1.4,.8,3.48,1.74,2.09Zm8.61-12.12c-.04,2.24-.08,4.47-.13,6.71-1.15-.61-2.29-1.23-3.43-1.88,1.17-1.63,2.36-3.24,3.56-4.83Z"/>
        <path class="cls-1" d="M392.3,304.45c-1.18-.68-2.36-1.36-3.54-2.04,.37-1.57,.73-3.15,1.05-4.74,.17-.83-.1-1.78-.74-2.15-.58-.33-1.35,.02-1.52,.86-.33,1.59-.68,3.16-1.05,4.73-1.01-.58-2.02-1.17-3.04-1.75-1.45-.84-2.24,2.17-.79,3.01,1.03,.59,2.05,1.18,3.08,1.77-.5,1.95-1.03,3.89-1.6,5.8-.57,1.9,1.7,3.18,2.26,1.29,.57-1.91,1.09-3.84,1.59-5.78,1.17,.67,2.33,1.34,3.5,2.02,1.45,.84,2.24-2.17,.79-3.01Z"/>
      </g>
    </g>
    <g>
      <path class="cls-9" d="M484.28,232.28s6.49-3.85,10.38-3.32c0,0-12.12,6.16-16.55,11.03,0,0,2.98-6.08,6.18-7.71Z"/>
      <path class="cls-1" d="M484.26,232.3c-15,15.03-20.2,44.69-20.2,44.69-6.15,.36-20.18-.77-28.15-1.42-7.97-.66-12.21-.13-12.21-.13,1.75-5.82,6.34-12.62,13.02-17.88,1-.79,2.05-1.55,3.14-2.26,1.33-.87,2.74-1.68,4.2-2.4,.35-.18,.73-.36,1.12-.56,1.55-.77,3.4-1.7,5.44-2.74,1.3-.65,2.68-1.36,4.11-2.09h.02c5.93-3.03,12.69-6.51,18.24-9.39,6.2-3.2,10.9-5.64,11.26-5.82Z"/>
      <line class="cls-10" x1="451.72" y1="251.44" x2="450.62" y2="249.59"/>
      <line class="cls-10" x1="447.73" y1="256.65" x2="445.18" y2="252.34"/>
      <line class="cls-10" x1="443.72" y1="261.79" x2="439.87" y2="255.3"/>
      <path class="cls-13" d="M423.71,275.43s4.23-.53,12.2,.12,21.99,1.78,28.15,1.43c0,0,5.2-29.68,20.22-44.7,0,0-29.57,15.35-40.21,20.62-10.64,5.27-18.04,14.79-20.36,22.54Z"/>
      <g>
        <path class="cls-13" d="M471.52,247.57c-4.38,8.97-15.43,16.22-24.69,16.18-1.52,0-2.89-.21-4.11-.58-3.05-.93-5.12-2.93-6-5.61,1-.79,2.05-1.55,3.14-2.26,1.33-.87,2.74-1.68,4.2-2.4,.35-.18,.73-.36,1.12-.56,1.55-.77,3.4-1.7,5.44-2.74,1.3-.65,2.68-1.36,4.11-2.09h.02c5.93-3.03,12.69-6.51,18.24-9.39,.68,2.67,.25,5.93-1.48,9.45Z"/>
        <polyline class="cls-13" points="442.72 263.16 447.73 256.65 451.72 251.44 454.76 247.5 454.74 247.5"/>
      </g>
    </g>
    <g>
      <path class="cls-25" d="M443.61,206.81s-8.99,1.74-13.33,1.79c0,0,11.28-6.91,15.28-11.5,0,0,10.51,2.88,15.74,2.73l-17.7,6.97Z"/>
      <path class="cls-13" d="M443.61,206.81s-8.99,1.74-13.33,1.79c0,0,11.28-6.91,15.28-11.5,0,0,10.51,2.88,15.74,2.73l-17.7,6.97Z"/>
      <path class="cls-9" d="M490.5,184.88s-16.87-3.14-23.73-5.73c0,0-5.46,22.06-23.16,27.67,0,0,21.84-1.58,31.76-8.3s11.43-10.17,15.13-13.63Z"/>
    </g>
  </g>
  <g>
    <path class="cls-19" d="M472.13,408.36h0c-4.85,6.94-11.03,11.86-14.79,11.05-11.77-2.55-9.82,1.18-17.65-.74-11.59-2.84-16.49-30.88-12.12-40.29,.56-1.23,1.29-2.13,2.17-2.63,7.71-4.34,17.71,.99,17.71,.99,6.16-5.42,22.36-9.67,30.12,4.59,4.21,7.73,.32,18.81-5.44,27.04Z"/>
    <path class="cls-13" d="M472.13,408.36h0c-4.85,6.94-11.03,11.86-14.79,11.05-11.77-2.55-9.82,1.18-17.65-.74-11.59-2.84-16.49-30.88-12.12-40.29,.56-1.23,1.29-2.13,2.17-2.63,7.71-4.34,17.71,.99,17.71,.99,6.16-5.42,22.36-9.67,30.12,4.59,4.21,7.73,.32,18.81-5.44,27.04Z"/>
    <path class="cls-9" d="M447.45,376.74s1.94-7.61-1.79-11.45c0,0,.57-2.41,3.02-2.41,0,0,2.58,10.07-.17,13.95,0,0-.59,.25-1.05-.08Z"/>
    <path class="cls-1" d="M431.52,377.19c.49-1.62,6.47-2.74,8.81-.2,2.34,2.54-2.91,4.5-5.35,3.72-2.44-.78-3.87-2.17-3.46-3.52Z"/>
    <path class="cls-1" d="M442.75,378.95c.31-.92,3.34-1.34,4.4,.23,1.06,1.57-1.64,2.5-2.82,1.95-1.18-.55-1.84-1.41-1.58-2.18Z"/>
  </g>
  <g>
    <path class="cls-15" d="M303.77,133.04h85.84c12.36,0,22.38,10.02,22.38,22.38s-10.02,22.38-22.38,22.38h-92.47s-7.87,0-15.75,7.14v-29.51c0-12.36,10.02-22.38,22.38-22.38Z"/>
    <path class="cls-13" d="M303.77,133.04h85.84c12.36,0,22.38,10.02,22.38,22.38s-10.02,22.38-22.38,22.38h-92.47s-7.87,0-15.75,7.14v-29.51c0-12.36,10.02-22.38,22.38-22.38Z"/>
  </g>
  <g>
    <path class="cls-9" d="M157.09,442.7c-.93-22.53,75.79-22.87,82.1-10.01,4.29,8.74-26.19,4.33-19.28,17.9,10.22,20.06-61.83,15.88-62.82-7.89Z"/>
    <path class="cls-28" d="M157.09,439.52c-.93-22.53,75.79-22.87,82.1-10.01,4.29,8.74-26.19,4.33-19.28,17.9,10.22,20.06-61.83,15.88-62.82-7.89Z"/>
    <path class="cls-13" d="M157.09,439.52c-.93-22.53,75.79-22.87,82.1-10.01,4.29,8.74-26.19,4.33-19.28,17.9,10.22,20.06-61.83,15.88-62.82-7.89Z"/>
    <path class="cls-19" d="M166.66,434.54c4.12-10.44,27.3-8.39,28.81-3.62,1.98,6.24-2.91,9.58-10.07,11.66-7.42,2.15-22.86,2.4-18.74-8.04Z"/>
    <path class="cls-18" d="M205.52,426.31c-8.09,2.58,4.74,13.33,17.03,7.24s-2.74-11.8-17.03-7.24Z"/>
    <path class="cls-20" d="M192.59,443.77c-7.4,7.19-.55,10.58,5.76,10.58s20.26,1.21,15.85-7.84c-4.42-9.05-15.05-9.11-21.6-2.74Z"/>
  </g>
  <g>
    <g>
      <path class="cls-16" d="M575.29,402.7l30.81,11.69s10.54,32.39,8.3,47.21h-41.74s-6.81-42.27,2.63-58.9Z"/>
      <path class="cls-5" d="M600.61,412.3s6.59,32.79,6.59,49.3"/>
      <path class="cls-13" d="M575.29,402.7l30.81,11.69s10.54,32.39,8.3,47.21h-41.74s-6.81-42.27,2.63-58.9Z"/>
    </g>
    <g>
      <path class="cls-9" d="M589.43,383.13l1.93,3.1s-4.19,15.2-8.9,33.71c-7.12,27.98-5.83,41.65-5.83,41.65h-3.98s-3.47-31.96,16.77-78.47Z"/>
      <path class="cls-16" d="M589.43,383.13s-4.44,15.97-8.32,30.41c-1.11,4.11-2.17,8.1-3.07,11.56-.43,1.65-.83,3.36-1.19,5.09-.86,4.06-1.57,8.28-2.14,12.26-1.5,10.4-2.05,19.14-2.05,19.14,0,0-16.79-.99-31.08-1.7-7.49-.38-14.29-.68-17.64-.73-9.75-.13-30.95-2.87-30.95-2.87,0,0,8.77-29.82,10.25-36.07,.54-2.26,1.86-8.01,3.32-14.4,2.58-11.23,5.59-24.48,5.59-24.48,0,0,13.27-.3,27.22-.57,2.15-.04,4.32-.08,6.46-.12,3.8-.07,7.51-.12,10.85-.18,5.62-.08,10.22-.11,12.59-.08,9.75,.13,20.16,2.72,20.16,2.72Z"/>
      <path class="cls-13" d="M515.16,394.49s24.61,50.23,39.11,56.64-5.27-13.15-9.88-16.18"/>
      <path class="cls-13" d="M512.95,414.72s12.69,16.72,14.7,37.69"/>
      <path class="cls-13" d="M589.43,383.13s-4.44,15.97-8.32,30.41c-1.11,4.11-2.17,8.1-3.07,11.56-.43,1.65-.83,3.36-1.19,5.09-.86,4.06-1.57,8.28-2.14,12.26-1.5,10.4-2.05,19.14-2.05,19.14,0,0-16.79-.99-31.08-1.7-7.49-.38-14.29-.68-17.64-.73-9.75-.13-30.95-2.87-30.95-2.87,0,0,8.77-29.82,10.25-36.07,.54-2.26,1.86-8.01,3.32-14.4,2.58-11.23,5.59-24.48,5.59-24.48,0,0,13.27-.3,27.22-.57,2.15-.04,4.32-.08,6.46-.12,3.8-.07,7.51-.12,10.85-.18,5.62-.08,10.22-.11,12.59-.08,9.75,.13,20.16,2.72,20.16,2.72Z"/>
    </g>
    <g>
      <g>
        <path class="cls-28" d="M441.42,475.72c-4.6-3.24-2.89-10.57-2.89-10.57,1.07,.34,3.85,.02,4.47-.05-1.19,.08-3.89-1.92-3.89-1.92,.5-1.06,1.12-2.07,1.76-2.99,1.1,.7,2.43,1.17,2.43,1.17-.59-.37-1.23-1.41-1.66-2.21,1.69-2.18,3.32-3.62,3.32-3.62,.69,3.81,4.56,7.46,4.56,7.46-2.83-1.94-1.26-7.57-1.26-7.57,.7-.08,1.24-.58,1.24-.58-.68,2.91,2.43,10.78,7.2,9.91,4.77-.87,6.87,2.48,6.87,2.48-1.22,5.36-6.02,7.27-16.57,5.62-2.56-.4-5.58,2.87-5.58,2.87Z"/>
        <path class="cls-12" d="M438.9,471.05s3.19-2.05,6.11-1.68,8.92,1.97,11.74-.05"/>
        <path class="cls-12" d="M443.3,461.36s1.71,2.54,3.96,3.91"/>
        <path class="cls-12" d="M449.52,462.99s2.35,3.69,6.29,3.82"/>
        <path class="cls-13" d="M441.42,475.72c-4.6-3.24-2.89-10.57-2.89-10.57,1.07,.34,3.85,.02,4.47-.05-1.19,.08-3.89-1.92-3.89-1.92,.5-1.06,1.12-2.07,1.76-2.99,1.1,.7,2.43,1.17,2.43,1.17-.59-.37-1.23-1.41-1.66-2.21,1.69-2.18,3.32-3.62,3.32-3.62,.69,3.81,4.56,7.46,4.56,7.46-2.83-1.94-1.26-7.57-1.26-7.57,.7-.08,1.24-.58,1.24-.58-.68,2.91,2.43,10.78,7.2,9.91,4.77-.87,6.87,2.48,6.87,2.48-1.22,5.36-6.02,7.27-16.57,5.62-2.56-.4-5.58,2.87-5.58,2.87Z"/>
      </g>
      <g>
        <path class="cls-28" d="M466.17,471.02c-1.52,.27-3.1-1.39-3.52-3.72-.42-2.33,.48-4.44,2-4.71,1.52-.27,3.1,1.39,3.52,3.72,.42,2.33-.48,4.44-2,4.71Z"/>
        <path class="cls-13" d="M466.17,471.02c-1.52,.27-3.1-1.39-3.52-3.72-.42-2.33,.48-4.44,2-4.71,1.52-.27,3.1,1.39,3.52,3.72,.42,2.33-.48,4.44-2,4.71Z"/>
      </g>
      <path class="cls-28" d="M544.59,421.66c-.59,2.51-2.33,4.26-3.89,3.89-1.56-.37-2.36-2.7-1.77-5.21,.59-2.51,2.33-4.26,3.89-3.89,1.56,.37,2.36,2.7,1.77,5.21Z"/>
      <path class="cls-7" d="M541.76,420.99s-11.08,16.65-.55,27.44c6.33,6.48,6.1,29.02-28.26,19.22-36.06-10.28-47.54-.84-47.54-.84"/>
    </g>
  </g>
  <text class="cls-2" transform="translate(288.04 162.82)"><tspan x="0" y="0">Ill CRACK IT</tspan></text>
</svg>