<?xml version="1.0" encoding="UTF-8"?>
<svg id="Layer_1" data-name="Layer 1" xmlns="http://www.w3.org/2000/svg" xmlns:xlink="http://www.w3.org/1999/xlink" viewBox="0 0 4000 4000">
  <defs>
    <style>
      .cls-1 {
        fill: url(#linear-gradient-2);
      }

      .cls-2, .cls-3, .cls-4, .cls-5, .cls-6, .cls-7, .cls-8, .cls-9 {
        fill-rule: evenodd;
      }

      .cls-2, .cls-3, .cls-4, .cls-6, .cls-9 {
        opacity: .3;
      }

      .cls-2, .cls-5 {
        fill: #fff;
      }

      .cls-3, .cls-7 {
        fill: #8a0028;
      }

      .cls-10 {
        clip-path: url(#clippath-2);
      }

      .cls-11 {
        clip-path: url(#clippath-1);
      }

      .cls-4 {
        fill: #1e003d;
      }

      .cls-5, .cls-7, .cls-8 {
        opacity: .28;
      }

      .cls-12 {
        clip-path: url(#clippath);
      }

      .cls-13 {
        clip-rule: evenodd;
      }

      .cls-13, .cls-14 {
        fill: none;
      }

      .cls-15 {
        clip-path: url(#clippath-3);
      }

      .cls-16 {
        fill: url(#linear-gradient-3);
      }

      .cls-6 {
        fill: #005b50;
      }

      .cls-17 {
        fill: url(#linear-gradient);
      }

      .cls-18 {
        fill: url(#linear-gradient-4);
      }

      .cls-8 {
        fill: #ff0;
      }

      .cls-9 {
        fill: #3e005d;
      }
    </style>
    <clipPath id="clippath">
      <path class="cls-13" d="M2000,1375.98c485.73,0,879.49,393.76,879.49,879.49s-393.76,879.49-879.49,879.49-879.49-393.76-879.49-879.49,393.76-879.49,879.49-879.49m0-254.87c626.49,0,1134.37,507.88,1134.37,1134.37s-507.87,1134.37-1134.37,1134.37-1134.37-507.87-1134.37-1134.37,507.87-1134.37,1134.37-1134.37Z"/>
    </clipPath>
    <linearGradient id="linear-gradient" x1="1892.99" y1="91.78" x2="2095.97" y2="4196.07" gradientUnits="userSpaceOnUse">
      <stop offset="0" stop-color="#ecf955"/>
      <stop offset="1" stop-color="#1a85f8"/>
    </linearGradient>
    <clipPath id="clippath-1">
      <path class="cls-13" d="M1976.8,1092.78l-240.67-58.15L822.28,3566.76s329.86,23.56,612.6-471.23c282.74-494.8,683.29-1767.13,683.29-1767.13l-141.37-235.61Z"/>
    </clipPath>
    <linearGradient id="linear-gradient-2" x1="2561.2" y1="636.39" x2="80.54" y2="4447.46" gradientUnits="userSpaceOnUse">
      <stop offset="0" stop-color="#f0f"/>
      <stop offset="1" stop-color="aqua"/>
    </linearGradient>
    <clipPath id="clippath-2">
      <path class="cls-13" d="M1424.05,2433.62l2155.72-524.37s164.93,565.48-376.99,730.41c-541.92,164.93-2803.84,518.36-2803.84,518.36,0,0-20.63-116.94,60.73-257.88,185.93-322.09,631.54-385.56,964.37-466.52"/>
    </clipPath>
    <linearGradient id="linear-gradient-3" x1="5425.47" y1="2044.4" x2="-1420.81" y2="3040.1" gradientUnits="userSpaceOnUse">
      <stop offset="0" stop-color="#f0f"/>
      <stop offset=".48" stop-color="#ff7a85"/>
      <stop offset="1" stop-color="#ff0"/>
    </linearGradient>
    <clipPath id="clippath-3">
      <path class="cls-13" d="M1953.23,433.06l1130.96,3133.7s-329.86,23.56-612.6-471.23c-282.74-494.8-835.42-1783.94-835.42-1783.94l317.06-878.53Z"/>
    </clipPath>
    <linearGradient id="linear-gradient-4" x1="3009.04" y1="3844.59" x2="1723.75" y2="213.86" xlink:href="#linear-gradient-3"/>
  </defs>
  <g class="cls-12">
    <rect class="cls-17" x="865.63" y="1121.11" width="2268.74" height="2268.74"/>
  </g>
  <path class="cls-6" d="M2000,1121.11c104.85,0,206.35,14.29,302.74,40.92l80.43,301.61c-115.82-56.15-245.81-87.66-383.16-87.66-194.12,0-373.51,62.94-518.99,169.45l112.68-349.31c126.15-48.42,263.12-75.02,406.31-75.02"/>
  <path class="cls-6" d="M3096.49,1963.99c24.67,93.03,37.88,190.71,37.88,291.49,0,457.84-271.26,852.27-661.81,1031.49-45.27-78.63-86.4-160.52-117.82-226.53,309.04-136.39,524.76-445.46,524.76-804.96,0-78.55-10.35-154.67-29.68-227.14l246.67-64.35Z"/>
  <path class="cls-6" d="M1450.79,3248.18c-282.62-156.71-491.27-430.56-560.36-756.04,73.4-15.06,166.61-34.45,249.45-52.5,53.8,252.46,215.92,464.8,435.38,586.09-27.19,48.41-79.18,141.09-124.47,222.45"/>
  <path class="cls-6" d="M2000,1375.98c485.73,0,879.49,393.76,879.49,879.49s-393.76,879.49-879.49,879.49-879.49-393.76-879.49-879.49,393.76-879.49,879.49-879.49m0-102.97c542.6,0,982.47,439.86,982.47,982.46s-439.87,982.47-982.47,982.47-982.47-439.87-982.47-982.47,439.87-982.46,982.47-982.46Z"/>
  <g class="cls-11">
    <rect class="cls-1" x="822.28" y="1034.63" width="1295.89" height="2555.69"/>
  </g>
  <path class="cls-9" d="M1235.66,2421.35l-267.6,741.46,449.27-37.43c5.87-9.76,11.71-19.66,17.54-29.86,112.96-197.67,244.69-519.42,362.2-834.58l-561.42,160.41Z"/>
  <path class="cls-4" d="M1976.8,1092.78l-240.67-58.15-135.87,376.47c88.54,215.45,179.26,430.52,271.84,644.52,140.74-392.68,246.07-727.22,246.07-727.22l-141.37-235.61Z"/>
  <g class="cls-10">
    <rect class="cls-16" x="378.32" y="1909.26" width="3366.39" height="1248.76"/>
  </g>
  <path class="cls-3" d="M1978.32,2298.8l645.97-157.13,201.51,589.64c-173,36.91-378.89,76.9-596.62,117.11-9.02-18.87-17.98-37.76-26.9-56.62-68.14-144.12-133.84-289.48-198.42-435.23-8.53-19.24-17.04-38.5-25.54-57.77"/>
  <g class="cls-15">
    <rect class="cls-18" x="1636.17" y="433.06" width="1448.02" height="3157.26"/>
  </g>
  <path class="cls-8" d="M2110.93,2594.97c-36.17-79.26-71.79-158.77-107.07-238.4-8.53-19.24-17.04-38.5-25.54-57.77l-215.21,52.35-339.06,82.48c-66.62,16.2-137.75,31.71-210.41,48.72-290.39,68.01-605.25,160.17-753.96,417.8-81.36,140.94-60.73,257.88-60.73,257.88,0,0,44.42-263.19,709.7-384.77,14.21-2.6,28.7-5.13,43.49-7.59,151.75-25.29,315.44-53.84,478.96-83.09,164.22-29.36,328.26-59.43,479.83-87.6"/>
  <path class="cls-5" d="M1628.96,2383.78l-204.91,49.84c-66.62,16.2-137.75,31.71-210.41,48.72-290.39,68.01-605.25,160.17-753.96,417.8-81.36,140.94-60.73,257.88-60.73,257.88,0,0,44.42-263.19,709.7-384.77,14.21-2.6,28.7-5.13,43.49-7.59,151.75-25.29,315.44-53.84,478.96-83.09,102.87-18.4,205.67-37.07,305.39-55.38,0,0-501.61,67.78-784.35,91.34-282.74,23.56-235.62-94.25-141.37-141.37,94.25-47.13,329.87-47.12,518.36-23.56,0,0-106.6-80.48,99.84-169.82"/>
  <path class="cls-7" d="M2825.8,2731.31h0c158.95-33.9,290.08-65.19,376.99-91.64,541.92-164.93,376.99-730.41,376.99-730.41-22.78,439.49-754.76,550.1-754.76,550.1,0,0-31.18,6.08-86.43,16.75-13.56,2.61-28.55,5.51-44.9,8.65l92.05,255.04c13.54-2.84,26.9-5.67,40.05-8.49"/>
  <path class="cls-7" d="M2110.93,2594.97c-151.58,28.17-315.61,58.24-479.83,87.6-163.52,29.25-327.21,57.8-478.96,83.09-14.78,2.47-29.28,5-43.49,7.59-318.83,58.27-495.07,149.05-592.2,227.85,38.5-29.41,187.72-124.17,577.69-187.62,53.89-8.77,112.38-16.94,175.81-24.26,124.37-14.35,235.14-28.7,333.9-42.66,243.7-34.44,414.21-66.48,535.24-90.19,36.57-7.16,68.62-13.57,96.81-19.05-9.61-19.89-19.27-39.99-28.97-60.25-31.34,5.86-63.38,11.83-96,17.89"/>
  <path class="cls-4" d="M1872.1,2055.62h0c14-39.03,27.63-77.49,40.85-115.11-48.16-107.2-92.84-207.89-131.65-295.96-13.41,32.72-27.13,66.94-41.1,102.48-69.75,177.37-145.98,387.51-223.31,606.69-7.35,20.81-14.7,41.71-22.06,62.67l268.29-65.26c8.44-22.19,16.82-44.4,25.14-66.6h0c28.91-77.14,57.02-154.09,83.83-228.93"/>
  <path class="cls-9" d="M1497.3,2977.88c-73.78,12.59-146.25,24.85-216.58,36.65-18.36,42.4-37.09,81.63-55.99,117.93-192.57,369.71-402.45,434.3-402.45,434.3,0,0,329.86,23.56,612.6-471.23l.56-1h0c20.1-35.21,40.78-74.34,61.86-116.64"/>
  <path class="cls-3" d="M3084.2,3566.76c-194.86-181.87-404.04-514.13-552.51-775.68-120.84-212.84-201.47-378.84-201.47-378.84l-84.68-178.44-251.16-529.24-34.45-72.58c10.09,27.99,20.26,56.12,30.48,84.28,66.47,183.16,135.11,368.16,198.45,531.32,33.23,85.6,65,165.18,94.23,235.34,43.44,104.24,97.27,214.88,156.21,326.03,133.31,251.41,292.7,505.39,416.66,693.61,132.52,71.03,228.24,64.2,228.24,64.2"/>
  <path class="cls-2" d="M1742.53,1016.91l-6.4,17.72-25.78,71.44,249.58,525.89v.03s34.46,72.58,34.46,72.58l251.16,529.24,84.68,178.44s80.63,166,201.47,378.84c148.47,261.54,357.65,593.81,552.51,775.68l-298.45-826.96-92.05-255.04-119.43-330.92L1953.23,433.06l-210.7,583.85Z"/>
  <path class="cls-2" d="M1742.53,1016.91l-6.4,17.72-25.78,71.44,249.58,525.89v.03s34.46,72.58,34.46,72.58l251.16,529.24,84.68,178.44s20.29,41.77,55.76,110.26c0,0-267.82-581.49-314.94-817.11-47.12-235.62,70.69-306.31,235.62-47.12,164.93,259.18,523.03,1203.32,523.03,1203.32h0s-43.95-121.78-43.95-121.78l-92.05-255.04-119.43-330.92L1953.23,433.06l-210.7,583.85Z"/>
  <rect class="cls-14" width="4000" height="4000"/>
</svg>